<svg id="Layer_1" data-name="Layer 1" xmlns="http://www.w3.org/2000/svg" width="640" height="640" viewBox="0 0 640 640"><defs><style>.cls-1{fill:#c8f1fd;}.cls-2{opacity:0.03;}.cls-3{isolation:isolate;}</style></defs><rect id="Rectangle_24" data-name="Rectangle 24" class="cls-1" width="640" height="640"/><path class="cls-2" d="M277.86,18.88c-87.48,0-144.83,53.46-166.21,151.64L100,224H202.05l11.66-50.55c8.75-40.82,29.16-57.35,57.35-57.35,29.16,0,48.6,14.58,48.6,48.6a109.82,109.82,0,0,1-2.92,24.3L308,229.81c-12.63,58.32-44.71,75.81-84.56,75.81h-35L168,402.82h39.85c36.93,0,53.46,13.61,53.46,46.66,0,9.72-1.95,21.38-4.86,36l-13.61,66.1c-11.66,54.43-34,70-63.18,70-33.05,0-52.49-13.6-52.49-47.62a109.82,109.82,0,0,1,2.92-24.3l11.66-55.41H39.72L31,534c-3.89,19.45-5.84,36.94-5.84,53.46,0,19.39,2.9,37,8.72,52.5h287q17.52-30.37,27-71.94l16.52-73.87c2.92-14.58,4.86-29.16,4.86-42.77,0-44.71-19.44-79.7-58.32-98.17v-1c62.21-14.58,91.37-60.26,108.86-137l2.92-12.64a225.18,225.18,0,0,0,6.8-54.43C429.49,61.65,368.26,18.88,277.86,18.88Z"/><path class="cls-2" d="M541.52,640,640,441.73V216.19L423.85,640Zm-44-611.4-21.39,97.2H640V28.6Z"/><g id="DENISOVA_11" data-name="DENISOVA 11" class="cls-3"><g class="cls-3"><path d="M169.7,229.2h10.37c5.89,0,9,2.88,9,8a15.82,15.82,0,0,1-.38,3.33l-4.8,22.65c-1.54,7.17-5.18,10.82-12.22,10.82H160.17Zm2.18,38.4c2.24,0,4.1-1.41,4.8-4.61l5-23.29a9.89,9.89,0,0,0,.19-1.73c0-1.79-.89-2.37-2.69-2.37h-3.64l-6.79,32Z"/><path d="M195.88,229.2h19.2l-1.41,6.4h-12l-2.49,11.84h9.47l-1.35,6.4h-9.47l-2.94,13.76h12l-1.35,6.4h-19.2Z"/><path d="M218.85,229.2h8.52l1.4,26.82,5.76-26.82h6.4L231.4,274h-6.91l-1.8-32.7-7,32.7h-6.4Z"/><path d="M246.18,229.2h7.17L243.81,274h-7.16Z"/><path d="M249.7,266.32a18.43,18.43,0,0,1,.45-4l.32-1.53h6.72l-.51,2.75a8.84,8.84,0,0,0-.2,1.73c0,2.3,1.29,2.94,3.33,2.94,3.39,0,4.35-3.14,4.35-6.27,0-2.75-1.15-5.31-3.9-8.51-3.58-4-5.31-8-5.31-12,0-7.36,4.35-12.87,11.71-12.87,6.34,0,9.6,2.88,9.6,8.26a19.31,19.31,0,0,1-.51,4l-.19.83h-6.72l.38-1.92a10.55,10.55,0,0,0,.19-1.92c0-2.17-1.15-2.88-3.2-2.88-3.13,0-4.16,2.95-4.16,5.83,0,2.56,1.15,5.12,3.91,8.32,3.52,4.16,5.31,8,5.31,12.28,0,7.62-4.29,13.25-11.91,13.25C252.84,274.64,249.7,271.82,249.7,266.32Z"/><path d="M274.15,265.62a15.51,15.51,0,0,1,.38-3.27l5.06-23.68c1.41-6.59,5.37-10.11,11.26-10.11,6.21,0,10.37,3.07,10.37,9a15.35,15.35,0,0,1-.39,3.32l-5.05,23.68c-1.41,6.59-5.31,10.05-11.26,10.05C278.31,274.64,274.15,271.57,274.15,265.62Zm14.53-1.35,5.18-24.51a7.52,7.52,0,0,0,.19-1.6c0-2.17-1.28-3.2-3.52-3.2-1.85,0-3.2,1-3.84,4l-5.18,24.52a6.93,6.93,0,0,0-.19,1.53c0,2.24,1.34,3.2,3.58,3.2C286.69,268.24,288,267.28,288.68,264.27Z"/><path d="M305.83,229.2h7l-2.95,35.2,12-35.2h6.78L312.55,274H303Z"/><path d="M345.57,229.2,343.33,274h-7.17l.64-8.77h-7.93L325.8,274H319l16.83-44.8Zm-8.38,29.95,1.6-21.82L331,259.15Z"/><path d="M370.08,239.83h-7.36l.58-5c5.95,0,8.57-1.54,11.07-5.64h5.18L369.83,274H362.6Z"/><path d="M389.35,239.83H382l.57-5c5.95,0,8.58-1.54,11.07-5.64h5.19L389.09,274h-7.23Z"/></g></g><g id="DENISOVA_11_stiller_skarpt_på_menneskeheden_som_én_art_hvem_er_vi_hvad_er_vi_gjort_af_og_hvordan_håndterer_vi_samtidens_kriser_" data-name="DENISOVA 11 stiller skarpt på menneskeheden som én art hvem er vi hvad er vi gjort af og hvordan håndterer vi samtidens kriser " class="cls-3"><g class="cls-3"><path d="M163.26,318.2h3.89c2.21,0,3.39,1.08,3.39,3a5.89,5.89,0,0,1-.15,1.25l-1.8,8.49C168,333.63,166.65,335,164,335h-4.32Zm.82,14.4c.84,0,1.54-.53,1.8-1.73l1.87-8.74a3.43,3.43,0,0,0,.07-.64c0-.68-.33-.89-1-.89h-1.37l-2.55,12Z"/><path d="M173.08,318.2h7.2l-.53,2.4h-4.49l-.93,4.44h3.55l-.5,2.4h-3.56l-1.1,5.16h4.49l-.51,2.4h-7.2Z"/><path d="M181.7,318.2h3.19l.53,10.06,2.16-10.06H190L186.4,335h-2.59l-.67-12.26L180.52,335h-2.4Z"/><path d="M191.94,318.2h2.69L191.06,335h-2.69Z"/><path d="M193.26,332.12a6.88,6.88,0,0,1,.17-1.49l.12-.57h2.52l-.19,1a3.14,3.14,0,0,0-.07.65c0,.86.48,1.1,1.25,1.1,1.27,0,1.63-1.18,1.63-2.35a4.8,4.8,0,0,0-1.47-3.19,6.82,6.82,0,0,1-2-4.52c0-2.76,1.63-4.82,4.39-4.82,2.38,0,3.6,1.08,3.6,3.09a7.33,7.33,0,0,1-.19,1.52l-.07.31h-2.52l.14-.72a4,4,0,0,0,.08-.72c0-.82-.44-1.08-1.2-1.08-1.18,0-1.56,1.1-1.56,2.18a4.82,4.82,0,0,0,1.46,3.12,7,7,0,0,1,2,4.61c0,2.86-1.61,5-4.46,5C194.44,335.24,193.26,334.18,193.26,332.12Z"/><path d="M202.43,331.86a6,6,0,0,1,.14-1.23l1.9-8.88c.53-2.47,2-3.79,4.23-3.79s3.88,1.15,3.88,3.38a5.57,5.57,0,0,1-.14,1.25l-1.9,8.88c-.52,2.47-2,3.77-4.22,3.77S202.43,334.09,202.43,331.86Zm5.45-.51,1.94-9.19a2.84,2.84,0,0,0,.08-.6c0-.82-.48-1.2-1.32-1.2s-1.21.38-1.44,1.51l-1.95,9.19a2.6,2.6,0,0,0-.07.58c0,.84.5,1.2,1.34,1.2C207.14,332.84,207.64,332.48,207.88,331.35Z"/><path d="M214.31,318.2H217l-1.1,13.2,4.51-13.2h2.54L216.83,335h-3.6Z"/><path d="M229.22,318.2l-.84,16.8h-2.69l.24-3.29h-3L221.8,335h-2.55l6.32-16.8Zm-3.15,11.23.6-8.18-2.9,8.18Z"/><path d="M238.41,322.18h-2.76l.21-1.87c2.23,0,3.22-.58,4.16-2.11H242L238.31,335H235.6Z"/><path d="M245.63,322.18h-2.76l.22-1.87c2.23,0,3.21-.58,4.15-2.11h1.94L245.53,335h-2.71Z"/><path d="M251.68,332.36a5.94,5.94,0,0,1,.12-1.06l0-.19h2.47l-.1.41a2.6,2.6,0,0,0-.07.58.87.87,0,0,0,1,1,1.35,1.35,0,0,0,1.32-1.44c0-.82-.65-1.35-1.39-1.9a3.78,3.78,0,0,1-2-3.29,3.73,3.73,0,0,1,3.89-3.91c1.77,0,3.09.94,3.09,2.76a5.67,5.67,0,0,1-.12,1.08h-2.4a5.51,5.51,0,0,0,.1-.82.75.75,0,0,0-.84-.81,1.23,1.23,0,0,0-1.2,1.34c0,.84.67,1.39,1.46,1.95a3.72,3.72,0,0,1,2,3.24,3.89,3.89,0,0,1-4.1,4C253,335.24,251.68,334.21,251.68,332.36Z"/><path d="M263.53,332a2.23,2.23,0,0,0,0,.34c0,.53.48.62.88.62a2.31,2.31,0,0,0,.75-.12l-.29,2.19a3.91,3.91,0,0,1-1.37.19c-1.61,0-2.64-.79-2.64-2.26a3.38,3.38,0,0,1,.1-.81l1.53-7.25h-1.39l.46-2.16H263l.94-3.31h2.25l-.69,3.31h1.82l-.46,2.16h-1.84Z"/><path d="M268.77,322.76h2.59L268.77,335h-2.6Zm.93-4.3h2.55l-.58,2.79h-2.55Z"/><path d="M274.31,318.2h2.59L273.33,335h-2.6Z"/><path d="M278.87,318.2h2.59L277.88,335h-2.59Z"/><path d="M289.07,325.69a5.39,5.39,0,0,1-.15,1.2l-.52,2.54h-5.07l-.41,1.9a3.79,3.79,0,0,0-.07.62c0,.7.41,1,1.25,1,.67,0,1.13-.43,1.34-1.39l.12-.55H288l-.12.58c-.48,2.32-1.88,3.62-4,3.62-2.4,0-3.68-1.2-3.68-3.17a5.89,5.89,0,0,1,.15-1.25l1-4.72c.48-2.28,1.87-3.58,4-3.58S289.07,323.58,289.07,325.69Zm-5.31,1.73h2.5l.22-1a3.17,3.17,0,0,0,.07-.55c0-.74-.43-1.05-1.18-1.05s-1.13.38-1.34,1.36Z"/><path d="M296.82,322.76l-.5,2.42a2.72,2.72,0,0,0-.92-.16c-1.17,0-2,.79-2.42,2.32L291.37,335h-2.59l2.57-12.24h2.21l-.32,1.92c.63-1.44,1.47-2.16,2.6-2.16A1.85,1.85,0,0,1,296.82,322.76Z"/><path d="M299.41,332.36a5.94,5.94,0,0,1,.12-1.06l.05-.19h2.47l-.09.41a2.67,2.67,0,0,0-.08.58.88.88,0,0,0,1,1,1.34,1.34,0,0,0,1.32-1.44c0-.82-.64-1.35-1.39-1.9a3.78,3.78,0,0,1-2-3.29,3.74,3.74,0,0,1,3.89-3.91c1.78,0,3.1.94,3.1,2.76a5.67,5.67,0,0,1-.12,1.08h-2.4a7,7,0,0,0,.09-.82.74.74,0,0,0-.84-.81,1.23,1.23,0,0,0-1.2,1.34c0,.84.67,1.39,1.47,1.95a3.72,3.72,0,0,1,2,3.24,3.9,3.9,0,0,1-4.11,4C300.73,335.24,299.41,334.21,299.41,332.36Z"/><path d="M314.32,327.44l1.34,7.56h-2.59l-.87-5-1.46,1.8L310,335h-2.59L311,318.2h2.59l-2,9.31,3.55-4.75h3Z"/><path d="M325.86,325.42a7,7,0,0,1-.17,1.49l-1,4.87a14,14,0,0,0-.4,3.22h-2.4a4.59,4.59,0,0,1,.07-1.18,2.92,2.92,0,0,1-2.52,1.42,2.38,2.38,0,0,1-2.5-2.62c0-2.49,1.54-3.74,3.89-4.58,1.92-.67,2.21-.86,2.35-1.51v0l.07-.36a2.59,2.59,0,0,0,.08-.57c0-.63-.34-.92-1-.92s-1.08.46-1.25,1.3l-.12.58h-2.45l.17-.7c.5-2.14,1.75-3.36,3.77-3.36S325.86,323.41,325.86,325.42Zm-3.74,6.17.52-2.52a5.93,5.93,0,0,1-1.44.77,2.44,2.44,0,0,0-1.58,2.23.91.91,0,0,0,1,1C321.32,333.06,321.83,332.62,322.12,331.59Z"/><path d="M333.8,322.76l-.5,2.42a2.61,2.61,0,0,0-.91-.16c-1.18,0-2,.79-2.43,2.32l-1.6,7.66h-2.6l2.57-12.24h2.21l-.31,1.92c.62-1.44,1.46-2.16,2.59-2.16A1.83,1.83,0,0,1,333.8,322.76Z"/><path d="M341.94,325a7,7,0,0,1-.17,1.34l-1.2,5.66c-.48,2.28-1.63,3.22-3.14,3.22a2.39,2.39,0,0,1-2.28-1.32l-1,4.8h-2.59l3.36-16h2.21l-.2,1.25a3,3,0,0,1,2.52-1.49A2.27,2.27,0,0,1,341.94,325Zm-2.69.69c0-.55-.19-.93-.93-.93s-1.2.31-1.52,1.36l-1,4.9a4,4,0,0,0-.07.67c0,.91.48,1.27,1.15,1.27s1-.57,1.2-1.34l1.13-5.3A2.89,2.89,0,0,0,339.25,325.71Z"/><path d="M345.59,332a1.47,1.47,0,0,0,0,.34c0,.53.48.62.89.62a2.3,2.3,0,0,0,.74-.12l-.29,2.19a3.82,3.82,0,0,1-1.36.19c-1.61,0-2.65-.79-2.65-2.26a3.38,3.38,0,0,1,.1-.81l1.54-7.25h-1.39l.45-2.16h1.51l.94-3.31h2.26l-.7,3.31h1.82l-.45,2.16H347.1Z"/><path d="M361.62,325a7,7,0,0,1-.17,1.34l-1.2,5.66c-.48,2.28-1.63,3.22-3.14,3.22a2.39,2.39,0,0,1-2.28-1.32l-1,4.8h-2.59l3.36-16h2.2L356.6,324a3,3,0,0,1,2.52-1.49A2.27,2.27,0,0,1,361.62,325Zm-2.69.69c0-.55-.19-.93-.93-.93s-1.21.31-1.52,1.36l-1,4.9a4,4,0,0,0-.07.67c0,.91.48,1.27,1.15,1.27s1-.57,1.2-1.34l1.13-5.3A2.89,2.89,0,0,0,358.93,325.71Z"/><path d="M370.33,325.42a7,7,0,0,1-.17,1.49l-1,4.87a13.71,13.71,0,0,0-.41,3.22h-2.4a4.59,4.59,0,0,1,.07-1.18,2.92,2.92,0,0,1-2.52,1.42,2.38,2.38,0,0,1-2.5-2.62c0-2.49,1.54-3.74,3.89-4.58,1.92-.67,2.21-.86,2.35-1.51v0l.07-.36a2.59,2.59,0,0,0,.08-.57c0-.63-.34-.92-1-.92s-1.08.46-1.25,1.3l-.12.58H363l.17-.7c.5-2.14,1.75-3.36,3.77-3.36S370.33,323.41,370.33,325.42Zm-3.74,6.17.52-2.52a5.93,5.93,0,0,1-1.44.77,2.44,2.44,0,0,0-1.58,2.23.91.91,0,0,0,1,1C365.79,333.06,366.3,332.62,366.59,331.59Zm-.7-12a2.35,2.35,0,0,1,2.35-2.32,1.86,1.86,0,0,1,2,1.87,2.35,2.35,0,0,1-2.36,2.33A1.89,1.89,0,0,1,365.89,319.61Zm1.39-.11a.68.68,0,0,0,.7.72.92.92,0,0,0,.89-.94.68.68,0,0,0-.72-.72A.89.89,0,0,0,367.28,319.5Z"/></g><g class="cls-3"><path d="M174.09,354a6,6,0,0,1-.17,1.37L172.07,364h-2.59l1.83-8.52a3.08,3.08,0,0,0,.09-.74.83.83,0,0,0-.94-1c-.6,0-1.12.38-1.44,1.32a1.09,1.09,0,0,1,0,.24L167.13,364h-2.59l1.82-8.52a3.15,3.15,0,0,0,.1-.74.83.83,0,0,0-.94-1c-.67,0-1.27.48-1.54,1.7l-1.8,8.52h-2.59l2.57-12.24h2.21l-.22,1.27a3,3,0,0,1,2.55-1.51,2.19,2.19,0,0,1,2.35,1.61,3,3,0,0,1,2.59-1.61A2.23,2.23,0,0,1,174.09,354Z"/><path d="M183.14,354.69a5.39,5.39,0,0,1-.15,1.2l-.53,2.54H177.4l-.41,1.9a2.94,2.94,0,0,0-.07.62c0,.7.41,1,1.25,1,.67,0,1.13-.43,1.34-1.39l.12-.55h2.47l-.12.58c-.48,2.32-1.87,3.62-4,3.62-2.4,0-3.67-1.2-3.67-3.17a5.89,5.89,0,0,1,.15-1.25l1-4.72c.48-2.28,1.88-3.58,4-3.58S183.14,352.58,183.14,354.69Zm-5.31,1.73h2.5l.21-1a2.51,2.51,0,0,0,.08-.55c0-.74-.44-1.05-1.18-1.05s-1.13.38-1.34,1.36Z"/><path d="M192.4,354a6,6,0,0,1-.17,1.37L190.38,364h-2.59l1.83-8.52a3.08,3.08,0,0,0,.09-.74c0-.63-.29-1-.93-1s-1.23.45-1.52,1.53L185.44,364h-2.59l2.57-12.24h2.2l-.21,1.27a3,3,0,0,1,2.54-1.51A2.23,2.23,0,0,1,192.4,354Z"/><path d="M201.74,354a6,6,0,0,1-.17,1.37L199.72,364h-2.59l1.82-8.52a3.15,3.15,0,0,0,.1-.74.83.83,0,0,0-.94-1c-.65,0-1.22.45-1.51,1.53L194.78,364h-2.6l2.57-12.24H197l-.22,1.27a3,3,0,0,1,2.55-1.51A2.23,2.23,0,0,1,201.74,354Z"/><path d="M210.78,354.69a5.34,5.34,0,0,1-.14,1.2l-.53,2.54h-5.06l-.41,1.9a2.94,2.94,0,0,0-.07.62c0,.7.41,1,1.25,1,.67,0,1.12-.43,1.34-1.39l.12-.55h2.47l-.12.58c-.48,2.32-1.87,3.62-4,3.62-2.4,0-3.67-1.2-3.67-3.17a6.54,6.54,0,0,1,.14-1.25l1-4.72c.48-2.28,1.87-3.58,4-3.58S210.78,352.58,210.78,354.69Zm-5.3,1.73H208l.21-1a2.43,2.43,0,0,0,.07-.55c0-.74-.43-1.05-1.17-1.05s-1.13.38-1.35,1.36Z"/><path d="M210.71,361.36a5.94,5.94,0,0,1,.12-1.06l0-.19h2.47l-.09.41a2.67,2.67,0,0,0-.08.58.88.88,0,0,0,1,1,1.34,1.34,0,0,0,1.32-1.44c0-.82-.64-1.35-1.39-1.9a3.78,3.78,0,0,1-2-3.29,3.74,3.74,0,0,1,3.89-3.91c1.78,0,3.1.94,3.1,2.76a5.67,5.67,0,0,1-.12,1.08h-2.4a7,7,0,0,0,.09-.82.74.74,0,0,0-.84-.81,1.23,1.23,0,0,0-1.2,1.34c0,.84.67,1.39,1.47,1.95a3.72,3.72,0,0,1,2,3.24,3.9,3.9,0,0,1-4.11,4C212,364.24,210.71,363.21,210.71,361.36Z"/><path d="M225.62,356.44,227,364h-2.59l-.87-5-1.46,1.8-.7,3.22h-2.59l3.58-16.8h2.59l-2,9.31,3.55-4.75h3Z"/><path d="M237.11,354.69a6,6,0,0,1-.14,1.2l-.53,2.54h-5.06l-.41,1.9a2.94,2.94,0,0,0-.07.62c0,.7.4,1,1.24,1,.68,0,1.13-.43,1.35-1.39l.12-.55h2.47l-.12.58c-.48,2.32-1.87,3.62-4,3.62-2.4,0-3.67-1.2-3.67-3.17a5.83,5.83,0,0,1,.14-1.25l1-4.72c.48-2.28,1.87-3.58,4-3.58S237.11,352.58,237.11,354.69Zm-5.3,1.73h2.49l.22-1a2.43,2.43,0,0,0,.07-.55c0-.74-.43-1.05-1.17-1.05s-1.13.38-1.35,1.36Z"/><path d="M246.38,354a6,6,0,0,1-.17,1.37L244.36,364h-2.59l1.82-8.52a3.15,3.15,0,0,0,.1-.74.83.83,0,0,0-.94-1c-.65,0-1.25.45-1.51,1.6L239.42,364h-2.55l3.55-16.8H243l-1.11,5.23a2.81,2.81,0,0,1,2.07-.91A2.23,2.23,0,0,1,246.38,354Z"/><path d="M255.42,354.69a5.34,5.34,0,0,1-.14,1.2l-.53,2.54h-5.06l-.41,1.9a2.94,2.94,0,0,0-.07.62c0,.7.4,1,1.25,1,.67,0,1.12-.43,1.34-1.39l.12-.55h2.47l-.12.58c-.48,2.32-1.87,3.62-4,3.62-2.4,0-3.67-1.2-3.67-3.17a6.54,6.54,0,0,1,.14-1.25l1-4.72c.48-2.28,1.87-3.58,4-3.58S255.42,352.58,255.42,354.69Zm-5.3,1.73h2.5l.21-1a2.43,2.43,0,0,0,.07-.55c0-.74-.43-1.05-1.17-1.05s-1.13.38-1.35,1.36Z"/><path d="M263.32,360.78a15,15,0,0,0-.41,3.22h-2.4a3.62,3.62,0,0,1,.07-1.25,3,3,0,0,1-2.52,1.49,2.27,2.27,0,0,1-2.49-2.5,7.82,7.82,0,0,1,.16-1.34l1.2-5.66c.48-2.28,1.64-3.22,3.15-3.22a2.36,2.36,0,0,1,2.3,1.37l1.23-5.69h2.59Zm-2.52-.52.93-4.4a3.57,3.57,0,0,0,.1-.81c0-.92-.5-1.27-1.18-1.27s-1,.57-1.2,1.34l-1.12,5.3a2.94,2.94,0,0,0-.08.63c0,.55.2.93.94.93S260.51,361.6,260.8,360.26Z"/><path d="M273.74,354.69a5.39,5.39,0,0,1-.15,1.2l-.53,2.54H268l-.41,1.9a2.94,2.94,0,0,0-.07.62c0,.7.41,1,1.25,1,.67,0,1.12-.43,1.34-1.39l.12-.55h2.47l-.12.58c-.48,2.32-1.87,3.62-4,3.62-2.4,0-3.67-1.2-3.67-3.17a6.54,6.54,0,0,1,.14-1.25l1-4.72c.48-2.28,1.87-3.58,4-3.58S273.74,352.58,273.74,354.69Zm-5.31,1.73h2.5l.21-1a2.51,2.51,0,0,0,.08-.55c0-.74-.44-1.05-1.18-1.05s-1.13.38-1.35,1.36Z"/><path d="M283,354a6,6,0,0,1-.17,1.37L281,364h-2.59l1.82-8.52a2.7,2.7,0,0,0,.1-.74.83.83,0,0,0-.94-1c-.64,0-1.22.45-1.51,1.53L276,364h-2.59L276,351.76h2.21L278,353a3,3,0,0,1,2.54-1.51A2.23,2.23,0,0,1,283,354Z"/><path d="M286.84,361.36a5.94,5.94,0,0,1,.12-1.06l.05-.19h2.47l-.1.41a2.6,2.6,0,0,0-.07.58.87.87,0,0,0,1,1,1.35,1.35,0,0,0,1.32-1.44c0-.82-.65-1.35-1.39-1.9a3.78,3.78,0,0,1-2-3.29,3.73,3.73,0,0,1,3.89-3.91c1.77,0,3.09.94,3.09,2.76a5.67,5.67,0,0,1-.12,1.08h-2.4a5.51,5.51,0,0,0,.1-.82.75.75,0,0,0-.84-.81,1.23,1.23,0,0,0-1.2,1.34c0,.84.67,1.39,1.46,1.95a3.72,3.72,0,0,1,2,3.24,3.89,3.89,0,0,1-4.1,4C288.16,364.24,286.84,363.21,286.84,361.36Z"/><path d="M295.31,361.07a4.85,4.85,0,0,1,.12-1.17l1.06-4.83c.48-2.3,1.87-3.55,3.93-3.55s3.63,1.1,3.63,3.17a5.41,5.41,0,0,1-.12,1.17l-1.06,4.83c-.48,2.3-1.87,3.55-3.94,3.55S295.31,363.14,295.31,361.07Zm5-.43,1.15-5.28a2.22,2.22,0,0,0,.08-.55c0-.72-.41-1-1.16-1s-1.15.55-1.32,1.34l-1.15,5.28a2.18,2.18,0,0,0-.07.55c0,.72.41,1,1.15,1S300.13,361.43,300.3,360.64Z"/><path d="M318.25,354a5.89,5.89,0,0,1-.16,1.37L316.24,364h-2.59l1.82-8.52a3.15,3.15,0,0,0,.1-.74.83.83,0,0,0-.94-1c-.6,0-1.13.38-1.44,1.32a.74.74,0,0,1-.05.24L311.29,364H308.7l1.83-8.52a3.08,3.08,0,0,0,.09-.74c0-.63-.29-1-.93-1s-1.28.48-1.54,1.7l-1.8,8.52h-2.59l2.57-12.24h2.2l-.21,1.27a3,3,0,0,1,2.54-1.51,2.18,2.18,0,0,1,2.35,1.61,3,3,0,0,1,2.6-1.61A2.22,2.22,0,0,1,318.25,354Z"/><path d="M331.14,354.69a6,6,0,0,1-.14,1.2l-.53,2.54h-5.06l-.41,1.9a3,3,0,0,0-.08.62c0,.7.41,1,1.25,1,.68,0,1.13-.43,1.35-1.39l.12-.55h2.47l-.12.58c-.48,2.32-1.87,3.62-4,3.62-2.4,0-3.67-1.2-3.67-3.17a6.54,6.54,0,0,1,.14-1.25l1-4.72c.48-2.28,1.87-3.58,4-3.58S331.14,352.58,331.14,354.69Zm-5.3,1.73h2.49l.22-1a2.43,2.43,0,0,0,.07-.55c0-.74-.43-1.05-1.17-1.05s-1.13.38-1.35,1.36Zm3.07-5.93H326.8l2.37-3.24h3Z"/><path d="M340.41,354a6,6,0,0,1-.17,1.37L338.39,364H335.8l1.82-8.52a3.15,3.15,0,0,0,.1-.74.83.83,0,0,0-.94-1c-.65,0-1.22.45-1.51,1.53L333.45,364h-2.6l2.57-12.24h2.21l-.22,1.27a3,3,0,0,1,2.55-1.51A2.23,2.23,0,0,1,340.41,354Z"/><path d="M353.05,354.42a7,7,0,0,1-.17,1.49l-1,4.87a15,15,0,0,0-.41,3.22h-2.4a4.59,4.59,0,0,1,.07-1.18,2.91,2.91,0,0,1-2.52,1.42,2.38,2.38,0,0,1-2.5-2.62c0-2.49,1.54-3.74,3.89-4.58,1.92-.67,2.21-.86,2.36-1.51v0l.07-.36a2.52,2.52,0,0,0,.07-.57c0-.63-.34-.92-1-.92s-1.08.46-1.25,1.3l-.12.58h-2.45l.17-.7c.51-2.14,1.75-3.36,3.77-3.36S353.05,352.41,353.05,354.42Zm-3.74,6.17.53-2.52a6.15,6.15,0,0,1-1.44.77,2.43,2.43,0,0,0-1.59,2.23.91.91,0,0,0,1,1C348.52,362.06,349,361.62,349.31,360.59Z"/><path d="M361,351.76l-.51,2.42a2.61,2.61,0,0,0-.91-.16c-1.17,0-2,.79-2.42,2.32L355.55,364H353l2.56-12.24h2.21l-.31,1.92c.62-1.44,1.46-2.16,2.59-2.16A1.86,1.86,0,0,1,361,351.76Z"/><path d="M363.68,361a2.23,2.23,0,0,0,0,.34c0,.53.48.62.88.62a2.31,2.31,0,0,0,.75-.12l-.29,2.19a3.91,3.91,0,0,1-1.37.19c-1.61,0-2.64-.79-2.64-2.26a3.38,3.38,0,0,1,.1-.81l1.53-7.25h-1.39l.46-2.16h1.51l.94-3.31h2.25l-.69,3.31h1.82l-.46,2.16H365.2Z"/><path d="M367.31,364h-.89l.55-2.64h2.64l-.48,2.38L367,366.88h-1.29Zm1.63-11.78h2.64l-.55,2.64h-2.64Z"/><path d="M384.47,354a6,6,0,0,1-.17,1.37L382.45,364h-2.59l1.82-8.52a2.7,2.7,0,0,0,.1-.74.83.83,0,0,0-.94-1c-.64,0-1.24.45-1.51,1.6L377.51,364H375l3.56-16.8h2.54l-1.1,5.23a2.77,2.77,0,0,1,2.06-.91A2.23,2.23,0,0,1,384.47,354Z"/><path d="M386.2,351.76h2.56l-.38,8.81,3.38-8.81h2.52l-5,12.24H386Z"/><path d="M402.08,354.69a5.34,5.34,0,0,1-.14,1.2l-.53,2.54h-5.06l-.41,1.9a2.94,2.94,0,0,0-.07.62c0,.7.41,1,1.25,1,.67,0,1.12-.43,1.34-1.39l.12-.55h2.47l-.12.58c-.48,2.32-1.87,3.62-4,3.62-2.4,0-3.67-1.2-3.67-3.17a6.54,6.54,0,0,1,.14-1.25l1-4.72c.48-2.28,1.87-3.58,4-3.58S402.08,352.58,402.08,354.69Zm-5.3,1.73h2.5l.21-1a2.43,2.43,0,0,0,.07-.55c0-.74-.43-1.05-1.17-1.05s-1.13.38-1.35,1.36Z"/><path d="M416.25,354a6,6,0,0,1-.17,1.37L414.23,364h-2.59l1.82-8.52a3.15,3.15,0,0,0,.1-.74.83.83,0,0,0-.94-1c-.6,0-1.13.38-1.44,1.32a.74.74,0,0,1-.05.24L409.28,364h-2.59l1.83-8.52a3.08,3.08,0,0,0,.09-.74c0-.63-.29-1-.93-1s-1.28.48-1.54,1.7l-1.8,8.52h-2.59l2.57-12.24h2.2l-.21,1.27a3,3,0,0,1,2.54-1.51,2.18,2.18,0,0,1,2.35,1.61,3,3,0,0,1,2.6-1.61A2.23,2.23,0,0,1,416.25,354Z"/><path d="M429.13,354.69a6,6,0,0,1-.14,1.2l-.53,2.54H423.4l-.41,1.9a3,3,0,0,0-.08.62c0,.7.41,1,1.25,1,.67,0,1.13-.43,1.35-1.39l.12-.55h2.47l-.12.58c-.48,2.32-1.87,3.62-4,3.62-2.4,0-3.67-1.2-3.67-3.17a5.83,5.83,0,0,1,.14-1.25l1-4.72c.48-2.28,1.87-3.58,4-3.58S429.13,352.58,429.13,354.69Zm-5.3,1.73h2.49l.22-1a2.43,2.43,0,0,0,.07-.55c0-.74-.43-1.05-1.17-1.05s-1.13.38-1.35,1.36Z"/><path d="M436.88,351.76l-.5,2.42a2.66,2.66,0,0,0-.91-.16c-1.18,0-2,.79-2.43,2.32L431.43,364h-2.59l2.57-12.24h2.21l-.31,1.92c.62-1.44,1.46-2.16,2.59-2.16A1.83,1.83,0,0,1,436.88,351.76Z"/><path d="M441.23,351.76h2.56l-.38,8.81,3.38-8.81h2.52l-5,12.24h-3.24Z"/><path d="M450.56,351.76h2.59L450.56,364H448Zm.94-4.3H454l-.57,2.79h-2.55Z"/><path d="M453.51,364h-.88l.55-2.64h2.64l-.48,2.38-2.16,3.14h-1.3Z"/></g><g class="cls-3"><path d="M169.19,383a5.87,5.87,0,0,1-.17,1.36L167.18,393h-2.6l1.83-8.52a3.08,3.08,0,0,0,.09-.74c0-.63-.28-1-.93-1s-1.25.45-1.51,1.6L162.23,393h-2.54l3.55-16.8h2.54l-1.1,5.23a2.79,2.79,0,0,1,2.06-.91A2.22,2.22,0,0,1,169.19,383Z"/><path d="M170.92,380.76h2.57l-.39,8.81,3.39-8.81H179L174,393h-3.24Z"/><path d="M186.38,383.42a7,7,0,0,1-.17,1.49l-1,4.87a15,15,0,0,0-.41,3.22h-2.4a4.59,4.59,0,0,1,.07-1.18,2.91,2.91,0,0,1-2.52,1.42,2.37,2.37,0,0,1-2.49-2.62c0-2.49,1.53-3.74,3.89-4.58,1.92-.67,2.2-.86,2.35-1.51v0l.07-.36a2.54,2.54,0,0,0,.07-.58c0-.62-.33-.91-1-.91s-1.08.46-1.24,1.3l-.12.57H179l.17-.69c.5-2.14,1.75-3.36,3.76-3.36S186.38,381.41,186.38,383.42Zm-3.75,6.17.53-2.52a6.15,6.15,0,0,1-1.44.77,2.42,2.42,0,0,0-1.58,2.23.9.9,0,0,0,1,1C181.84,391.06,182.34,390.62,182.63,389.59Z"/><path d="M194.42,389.78A14.31,14.31,0,0,0,194,393h-2.4a3.37,3.37,0,0,1,.07-1.25,3,3,0,0,1-2.52,1.49,2.27,2.27,0,0,1-2.5-2.5,7.91,7.91,0,0,1,.17-1.34l1.2-5.66c.48-2.29,1.63-3.22,3.15-3.22a2.36,2.36,0,0,1,2.3,1.37l1.23-5.69h2.59Zm-2.52-.52.93-4.4a4.26,4.26,0,0,0,.1-.81c0-.92-.51-1.27-1.18-1.27s-1,.57-1.2,1.34l-1.13,5.3a3.68,3.68,0,0,0-.07.63c0,.55.19.93.94.93S191.61,390.6,191.9,389.26Z"/><path d="M208.67,383.69a6.07,6.07,0,0,1-.14,1.2l-.53,2.54h-5.06l-.41,1.9a2.94,2.94,0,0,0-.07.62c0,.7.4,1,1.24,1,.68,0,1.13-.43,1.35-1.39l.12-.55h2.47l-.12.57c-.48,2.33-1.87,3.63-4,3.63-2.4,0-3.67-1.2-3.67-3.17a6.54,6.54,0,0,1,.14-1.25l1-4.72c.48-2.28,1.87-3.58,4-3.58S208.67,381.57,208.67,383.69Zm-5.3,1.72h2.49l.22-1a2.43,2.43,0,0,0,.07-.55c0-.74-.43-1.05-1.17-1.05s-1.13.38-1.35,1.36Z"/><path d="M216.42,380.76l-.5,2.42A2.61,2.61,0,0,0,215,383c-1.18,0-2,.79-2.43,2.32L211,393h-2.6L211,380.76h2.21l-.31,1.92c.62-1.44,1.46-2.16,2.59-2.16A1.83,1.83,0,0,1,216.42,380.76Z"/><path d="M220.77,380.76h2.56l-.38,8.81,3.39-8.81h2.52l-5,12.24H220.6Z"/><path d="M230.1,380.76h2.6L230.1,393h-2.59Zm.94-4.3h2.54l-.57,2.79h-2.55Z"/><path d="M245.82,380.76l-2.71,12.84c-.46,2.11-1.49,3.36-3.94,3.36s-3.62-1-3.62-2.78a4,4,0,0,1,0-.58h2.45a1.2,1.2,0,0,0,0,.31c0,.6.39,1,1.13,1s1.18-.38,1.39-1.37l.41-2a2.79,2.79,0,0,1-2.06.91,2.28,2.28,0,0,1-2.5-2.5,6.92,6.92,0,0,1,.17-1.34l1-4.87c.48-2.26,1.63-3.22,3.14-3.22a2.35,2.35,0,0,1,2.48,1.92l.4-1.68Zm-4.27,8,.86-4.06a4.4,4.4,0,0,0,.05-.57c0-1-.48-1.32-1.15-1.32s-1,.57-1.2,1.39l-1,4.56a2.78,2.78,0,0,0-.08.62c0,.55.22.94,1,.94S241.24,389.88,241.55,388.73Z"/><path d="M243.42,394.51a1.6,1.6,0,0,0,.77.19c.41,0,.6-.19.7-.62l2.85-13.32h2.59l-3,13.82a2.57,2.57,0,0,1-2.66,2.38,3.55,3.55,0,0,1-1.73-.38Zm5.23-18.05h2.55l-.58,2.79h-2.54Z"/><path d="M250.12,390.07a4.85,4.85,0,0,1,.12-1.17l1-4.83c.48-2.3,1.88-3.55,3.94-3.55s3.62,1.1,3.62,3.17a4.9,4.9,0,0,1-.12,1.17l-1.05,4.83c-.48,2.3-1.87,3.55-3.94,3.55S250.12,392.14,250.12,390.07Zm5-.43,1.15-5.28a2.18,2.18,0,0,0,.07-.55c0-.72-.4-1-1.15-1s-1.15.55-1.32,1.34l-1.15,5.28a2.18,2.18,0,0,0-.07.55c0,.72.41,1,1.15,1S254.94,390.43,255.11,389.64Z"/><path d="M266.65,380.76l-.5,2.42a2.61,2.61,0,0,0-.91-.16c-1.18,0-2,.79-2.43,2.32l-1.6,7.66h-2.6l2.57-12.24h2.21l-.31,1.92c.62-1.44,1.46-2.16,2.59-2.16A1.83,1.83,0,0,1,266.65,380.76Z"/><path d="M269.34,390a2.33,2.33,0,0,0,0,.34c0,.53.48.62.89.62a2.31,2.31,0,0,0,.75-.12l-.29,2.19a3.91,3.91,0,0,1-1.37.19c-1.61,0-2.64-.79-2.64-2.26a2.94,2.94,0,0,1,.1-.81l1.53-7.25h-1.39l.46-2.16h1.51l.93-3.31H272l-.7,3.31h1.83l-.46,2.16h-1.85Z"/><path d="M284.8,383.42a7,7,0,0,1-.17,1.49l-1,4.87a15,15,0,0,0-.41,3.22h-2.4a4.79,4.79,0,0,1,.08-1.18,2.92,2.92,0,0,1-2.52,1.42,2.38,2.38,0,0,1-2.5-2.62c0-2.49,1.53-3.74,3.89-4.58,1.92-.67,2.21-.86,2.35-1.51v0l.07-.36a2.54,2.54,0,0,0,.07-.58c0-.62-.33-.91-1-.91s-1.09.46-1.25,1.3l-.12.57h-2.45l.17-.69c.5-2.14,1.75-3.36,3.77-3.36S284.8,381.41,284.8,383.42Zm-3.75,6.17.53-2.52a6.15,6.15,0,0,1-1.44.77,2.42,2.42,0,0,0-1.58,2.23.91.91,0,0,0,1,1C280.26,391.06,280.77,390.62,281.05,389.59Z"/><path d="M291,379.2l-.33,1.56h1.82l-.45,2.16h-1.83L288,393h-2.57l2.16-10.08h-1.39l.46-2.16h1.39l.46-2.16a2.88,2.88,0,0,1,3.07-2.64,3.87,3.87,0,0,1,1.85.41l-.43,2.11a2.41,2.41,0,0,0-1.06-.27C291.37,378.21,291.11,378.53,291,379.2Z"/><path d="M290.89,393H290l.56-2.64h2.64l-.48,2.38-2.16,3.14h-1.3Z"/><path d="M299,390.07a4.85,4.85,0,0,1,.12-1.17l1.06-4.83c.48-2.3,1.87-3.55,3.93-3.55s3.63,1.1,3.63,3.17a5.47,5.47,0,0,1-.12,1.17l-1.06,4.83c-.48,2.3-1.87,3.55-3.94,3.55S299,392.14,299,390.07Zm5-.43,1.15-5.28a2.22,2.22,0,0,0,.08-.55c0-.72-.41-1-1.16-1s-1.15.55-1.32,1.34l-1.15,5.28a2.18,2.18,0,0,0-.07.55c0,.72.41,1,1.15,1S303.8,390.43,304,389.64Z"/><path d="M317.44,380.76l-2.71,12.84c-.46,2.11-1.49,3.36-3.94,3.36s-3.63-1-3.63-2.78c0-.17,0-.39,0-.58h2.45a1.78,1.78,0,0,0,0,.31c0,.6.38,1,1.12,1s1.18-.38,1.4-1.37l.4-2a2.77,2.77,0,0,1-2.06.91A2.28,2.28,0,0,1,308,390a7.79,7.79,0,0,1,.17-1.34l1-4.87c.48-2.26,1.64-3.22,3.15-3.22a2.34,2.34,0,0,1,2.47,1.92l.41-1.68Zm-4.28,8,.87-4.06c0-.22.05-.41.05-.57,0-1-.48-1.32-1.16-1.32s-1,.57-1.2,1.39l-1,4.56a2.74,2.74,0,0,0-.07.62c0,.55.21.94,1,.94S312.85,389.88,313.16,388.73Z"/><path d="M330.11,383a5.87,5.87,0,0,1-.17,1.36L328.09,393H325.5l1.83-8.52a3.08,3.08,0,0,0,.09-.74.83.83,0,0,0-.94-1c-.64,0-1.24.45-1.51,1.6L323.15,393H320.6l3.56-16.8h2.54l-1.1,5.23a2.77,2.77,0,0,1,2.06-.91A2.23,2.23,0,0,1,330.11,383Z"/><path d="M331.84,380.76h2.56l-.38,8.81,3.39-8.81h2.51l-5,12.24h-3.24Z"/><path d="M338.94,390.07a4.85,4.85,0,0,1,.12-1.17l1.06-4.83c.48-2.3,1.87-3.55,3.93-3.55s3.63,1.1,3.63,3.17a5.47,5.47,0,0,1-.12,1.17l-1.06,4.83c-.48,2.3-1.87,3.55-3.94,3.55S338.94,392.14,338.94,390.07Zm5-.43,1.15-5.28a2.22,2.22,0,0,0,.08-.55c0-.72-.41-1-1.16-1s-1.15.55-1.32,1.34l-1.15,5.28a2.18,2.18,0,0,0-.07.55c0,.72.41,1,1.15,1S343.76,390.43,343.93,389.64Z"/><path d="M355.48,380.76l-.51,2.42a2.61,2.61,0,0,0-.91-.16c-1.18,0-2,.79-2.42,2.32L350,393h-2.59L350,380.76h2.21l-.31,1.92c.62-1.44,1.46-2.16,2.59-2.16A1.86,1.86,0,0,1,355.48,380.76Z"/><path d="M362.1,389.78a15,15,0,0,0-.41,3.22h-2.4a3.62,3.62,0,0,1,.07-1.25,3,3,0,0,1-2.52,1.49,2.27,2.27,0,0,1-2.49-2.5,7,7,0,0,1,.17-1.34l1.2-5.66c.48-2.29,1.63-3.22,3.14-3.22a2.36,2.36,0,0,1,2.3,1.37l1.23-5.69H365Zm-2.52-.52.94-4.4a4.1,4.1,0,0,0,.09-.81c0-.92-.5-1.27-1.17-1.27s-1,.57-1.2,1.34l-1.13,5.3a2.89,2.89,0,0,0-.07.63c0,.55.19.93.93.93S359.29,390.6,359.58,389.26Z"/><path d="M372.28,383.42a7,7,0,0,1-.17,1.49l-1,4.87a15,15,0,0,0-.41,3.22h-2.4a4.59,4.59,0,0,1,.07-1.18,2.91,2.91,0,0,1-2.52,1.42,2.37,2.37,0,0,1-2.49-2.62c0-2.49,1.53-3.74,3.89-4.58,1.92-.67,2.2-.86,2.35-1.51v0l.07-.36a2.54,2.54,0,0,0,.07-.58c0-.62-.33-.91-1-.91s-1.08.46-1.24,1.3l-.12.57h-2.45l.17-.69c.5-2.14,1.75-3.36,3.76-3.36S372.28,381.41,372.28,383.42Zm-3.75,6.17.53-2.52a6.15,6.15,0,0,1-1.44.77,2.42,2.42,0,0,0-1.58,2.23.9.9,0,0,0,1,1C367.74,391.06,368.24,390.62,368.53,389.59Z"/><path d="M381.73,383a5.87,5.87,0,0,1-.17,1.36L379.72,393h-2.6l1.83-8.52a3.08,3.08,0,0,0,.09-.74c0-.63-.28-1-.93-1s-1.23.45-1.51,1.53L374.77,393h-2.59l2.57-12.24H377l-.22,1.27a3,3,0,0,1,2.54-1.51A2.22,2.22,0,0,1,381.73,383Z"/><path d="M394.91,383a5.87,5.87,0,0,1-.17,1.36L392.89,393H390.3l1.82-8.52a2.7,2.7,0,0,0,.1-.74.83.83,0,0,0-.94-1c-.64,0-1.24.45-1.51,1.6L388,393H385.4L389,376.2h2.54l-1.1,5.23a2.77,2.77,0,0,1,2.06-.91A2.23,2.23,0,0,1,394.91,383Z"/><path d="M403.72,383.42a7,7,0,0,1-.17,1.49l-1,4.87a15,15,0,0,0-.41,3.22h-2.4a4.59,4.59,0,0,1,.07-1.18,2.91,2.91,0,0,1-2.52,1.42,2.37,2.37,0,0,1-2.49-2.62c0-2.49,1.53-3.74,3.89-4.58,1.92-.67,2.2-.86,2.35-1.51v0l.07-.36a2.54,2.54,0,0,0,.07-.58c0-.62-.33-.91-1-.91s-1.08.46-1.25,1.3l-.12.57h-2.44l.17-.69c.5-2.14,1.75-3.36,3.76-3.36S403.72,381.41,403.72,383.42ZM400,389.59l.53-2.52a6.15,6.15,0,0,1-1.44.77,2.42,2.42,0,0,0-1.58,2.23.9.9,0,0,0,1,1C399.18,391.06,399.68,390.62,400,389.59Zm-.69-12a2.35,2.35,0,0,1,2.35-2.32,1.86,1.86,0,0,1,2,1.87,2.36,2.36,0,0,1-2.35,2.33A1.89,1.89,0,0,1,399.28,377.61Zm1.39-.12a.67.67,0,0,0,.69.72.91.91,0,0,0,.89-.93.68.68,0,0,0-.72-.72A.89.89,0,0,0,400.67,377.49Z"/><path d="M413.17,383a5.87,5.87,0,0,1-.17,1.36L411.16,393h-2.6l1.83-8.52a3.08,3.08,0,0,0,.09-.74c0-.63-.28-1-.93-1s-1.23.45-1.51,1.53L406.21,393h-2.59l2.57-12.24h2.21l-.22,1.27a3,3,0,0,1,2.54-1.51A2.22,2.22,0,0,1,413.17,383Z"/><path d="M421.09,389.78a15,15,0,0,0-.41,3.22h-2.4a3.47,3.47,0,0,1,.08-1.25,3,3,0,0,1-2.53,1.49,2.27,2.27,0,0,1-2.49-2.5,7,7,0,0,1,.17-1.34l1.2-5.66c.48-2.29,1.63-3.22,3.14-3.22a2.39,2.39,0,0,1,2.31,1.37l1.22-5.69H424Zm-2.52-.52.94-4.4a4.1,4.1,0,0,0,.09-.81c0-.92-.5-1.27-1.17-1.27s-1,.57-1.2,1.34l-1.13,5.3a2.89,2.89,0,0,0-.07.63c0,.55.19.93.93.93S418.28,390.6,418.57,389.26Z"/><path d="M426.2,390a2.33,2.33,0,0,0-.05.34c0,.53.48.62.89.62a2.31,2.31,0,0,0,.75-.12l-.29,2.19a3.91,3.91,0,0,1-1.37.19c-1.61,0-2.64-.79-2.64-2.26a2.94,2.94,0,0,1,.1-.81l1.53-7.25h-1.39l.46-2.16h1.51l.93-3.31h2.26l-.7,3.31H430l-.46,2.16h-1.85Z"/><path d="M438,383.69a5.46,5.46,0,0,1-.15,1.2l-.53,2.54H432.3l-.41,1.9a2.94,2.94,0,0,0-.07.62c0,.7.41,1,1.25,1,.67,0,1.13-.43,1.34-1.39l.12-.55H437l-.12.57c-.48,2.33-1.87,3.63-4,3.63-2.4,0-3.67-1.2-3.67-3.17a6.54,6.54,0,0,1,.14-1.25l1-4.72c.48-2.28,1.87-3.58,4-3.58S438,381.57,438,383.69Zm-5.31,1.72h2.5l.21-1a2.51,2.51,0,0,0,.08-.55c0-.74-.44-1.05-1.18-1.05s-1.13.38-1.34,1.36Z"/><path d="M445.79,380.76l-.51,2.42a2.61,2.61,0,0,0-.91-.16c-1.18,0-2,.79-2.42,2.32L440.34,393h-2.59l2.56-12.24h2.21l-.31,1.92c.62-1.44,1.46-2.16,2.59-2.16A1.86,1.86,0,0,1,445.79,380.76Z"/><path d="M453.54,383.69a5.46,5.46,0,0,1-.15,1.2l-.52,2.54H447.8l-.41,1.9a3.79,3.79,0,0,0-.07.62c0,.7.41,1,1.25,1,.67,0,1.13-.43,1.34-1.39L450,389h2.48l-.12.57c-.48,2.33-1.88,3.63-4,3.63-2.4,0-3.68-1.2-3.68-3.17a5.89,5.89,0,0,1,.15-1.25l1-4.72c.48-2.28,1.87-3.58,4-3.58S453.54,381.57,453.54,383.69Zm-5.31,1.72h2.5l.22-1a3.17,3.17,0,0,0,.07-.55c0-.74-.43-1.05-1.18-1.05s-1.13.38-1.34,1.36Z"/><path d="M461.29,380.76l-.5,2.42a2.72,2.72,0,0,0-.92-.16c-1.17,0-2,.79-2.42,2.32L455.84,393h-2.59l2.57-12.24H458l-.32,1.92c.63-1.44,1.47-2.16,2.6-2.16A1.85,1.85,0,0,1,461.29,380.76Z"/><path d="M465.63,380.76h2.57l-.38,8.81,3.38-8.81h2.52l-5,12.24h-3.25Z"/><path d="M475,380.76h2.59L475,393h-2.59Zm.94-4.3h2.54l-.58,2.79h-2.54Z"/></g><g class="cls-3"><path d="M159.86,419.36a5.14,5.14,0,0,1,.12-1.06l0-.19h2.48l-.1.41a2.6,2.6,0,0,0-.07.58.87.87,0,0,0,1,1,1.35,1.35,0,0,0,1.32-1.45c0-.81-.65-1.34-1.39-1.89a3.78,3.78,0,0,1-2-3.29,3.73,3.73,0,0,1,3.88-3.91c1.78,0,3.1.93,3.1,2.76a5.67,5.67,0,0,1-.12,1.08h-2.4a5.51,5.51,0,0,0,.1-.82.75.75,0,0,0-.84-.81,1.22,1.22,0,0,0-1.2,1.34c0,.84.67,1.39,1.46,1.95a3.72,3.72,0,0,1,2,3.24,3.89,3.89,0,0,1-4.1,4C161.18,422.24,159.86,421.21,159.86,419.36Z"/><path d="M176.87,412.42a7,7,0,0,1-.17,1.49l-1,4.87a14.31,14.31,0,0,0-.41,3.22h-2.4a4.59,4.59,0,0,1,.07-1.18,2.91,2.91,0,0,1-2.52,1.42,2.38,2.38,0,0,1-2.5-2.62c0-2.49,1.54-3.74,3.89-4.58,1.92-.67,2.21-.86,2.35-1.51v0l.08-.36a3.25,3.25,0,0,0,.07-.58c0-.62-.34-.91-1-.91s-1.08.46-1.25,1.3l-.12.57H169.5l.17-.69c.51-2.14,1.75-3.36,3.77-3.36S176.87,410.41,176.87,412.42Zm-3.74,6.17.53-2.52a6.15,6.15,0,0,1-1.44.77,2.43,2.43,0,0,0-1.59,2.23.91.91,0,0,0,1,1C172.34,420.06,172.84,419.62,173.13,418.59Z"/><path d="M191.23,412a5.87,5.87,0,0,1-.17,1.36L189.21,422h-2.59l1.82-8.52a3.15,3.15,0,0,0,.1-.74.83.83,0,0,0-.94-1c-.6,0-1.13.38-1.44,1.32a.64.64,0,0,1,0,.23L184.26,422h-2.59l1.83-8.52a3.08,3.08,0,0,0,.09-.74c0-.63-.29-1-.93-1s-1.28.47-1.54,1.7l-1.8,8.52h-2.59l2.57-12.24h2.2l-.21,1.27a3,3,0,0,1,2.54-1.51,2.18,2.18,0,0,1,2.35,1.61,3,3,0,0,1,2.6-1.61A2.23,2.23,0,0,1,191.23,412Z"/><path d="M195,419a1.47,1.47,0,0,0-.05.34c0,.53.48.62.89.62a2.3,2.3,0,0,0,.74-.12l-.29,2.19a3.82,3.82,0,0,1-1.36.19c-1.61,0-2.64-.79-2.64-2.26a3.35,3.35,0,0,1,.09-.81l1.54-7.25H192.5l.45-2.16h1.51l.94-3.31h2.26l-.7,3.31h1.82l-.45,2.16h-1.85Z"/><path d="M200.2,409.76h2.59L200.2,422h-2.59Zm.94-4.3h2.54l-.58,2.79h-2.54Z"/><path d="M210.26,418.78a14.31,14.31,0,0,0-.41,3.22h-2.4a3.37,3.37,0,0,1,.07-1.25,3,3,0,0,1-2.52,1.49,2.27,2.27,0,0,1-2.5-2.5,7.91,7.91,0,0,1,.17-1.34l1.2-5.66c.48-2.29,1.63-3.22,3.15-3.22a2.36,2.36,0,0,1,2.3,1.37l1.22-5.69h2.6Zm-2.52-.52.93-4.4a4.26,4.26,0,0,0,.1-.81c0-.92-.51-1.27-1.18-1.27s-1,.57-1.2,1.34l-1.13,5.3a3.68,3.68,0,0,0-.07.63c0,.55.19.93.94.93S207.45,419.6,207.74,418.26Z"/><path d="M220.67,412.69a6.07,6.07,0,0,1-.14,1.2l-.53,2.54h-5.07l-.4,1.9a2.94,2.94,0,0,0-.07.62c0,.7.4,1,1.24,1,.67,0,1.13-.43,1.35-1.39l.12-.55h2.47l-.12.57c-.48,2.33-1.87,3.63-4,3.63-2.4,0-3.67-1.2-3.67-3.17a5.83,5.83,0,0,1,.14-1.25l1-4.72c.48-2.28,1.87-3.58,4-3.58S220.67,410.57,220.67,412.69Zm-5.3,1.72h2.49l.22-1a2.43,2.43,0,0,0,.07-.55c0-.74-.43-1.05-1.17-1.05s-1.13.38-1.35,1.36Z"/><path d="M229.94,412a5.87,5.87,0,0,1-.17,1.36L227.92,422h-2.59l1.82-8.52a3.15,3.15,0,0,0,.1-.74.83.83,0,0,0-.94-1c-.65,0-1.22.45-1.51,1.53L223,422h-2.6L223,409.76h2.21l-.22,1.27a3,3,0,0,1,2.55-1.51A2.23,2.23,0,0,1,229.94,412Z"/><path d="M229.93,419.36a5.94,5.94,0,0,1,.12-1.06l0-.19h2.47l-.09.41a2.6,2.6,0,0,0-.07.58.87.87,0,0,0,1,1,1.35,1.35,0,0,0,1.32-1.45c0-.81-.65-1.34-1.4-1.89a3.78,3.78,0,0,1-2-3.29,3.74,3.74,0,0,1,3.89-3.91c1.78,0,3.1.93,3.1,2.76a5.67,5.67,0,0,1-.12,1.08h-2.4a5.38,5.38,0,0,0,.09-.82.74.74,0,0,0-.83-.81,1.23,1.23,0,0,0-1.21,1.34c0,.84.68,1.39,1.47,1.95a3.72,3.72,0,0,1,2,3.24,3.9,3.9,0,0,1-4.11,4C231.25,422.24,229.93,421.21,229.93,419.36Z"/><path d="M248.68,414.44,250,422h-2.59l-.86-5-1.47,1.8-.69,3.22h-2.6l3.58-16.8H248l-2,9.31,3.55-4.75h3Z"/><path d="M259.26,409.76l-.5,2.42a2.66,2.66,0,0,0-.91-.16c-1.18,0-2,.79-2.43,2.32L253.81,422h-2.59l2.57-12.24H256l-.31,1.92c.62-1.44,1.46-2.16,2.59-2.16A1.85,1.85,0,0,1,259.26,409.76Z"/><path d="M260.44,409.76H263L260.44,422h-2.59Zm.93-4.3h2.55l-.58,2.79H260.8Z"/><path d="M262.57,419.36a5.94,5.94,0,0,1,.12-1.06l.05-.19h2.47l-.09.41a2.6,2.6,0,0,0-.07.58.87.87,0,0,0,1,1,1.35,1.35,0,0,0,1.32-1.45c0-.81-.65-1.34-1.4-1.89a3.78,3.78,0,0,1-2-3.29,3.74,3.74,0,0,1,3.89-3.91c1.78,0,3.1.93,3.1,2.76a5.67,5.67,0,0,1-.12,1.08h-2.4a5.38,5.38,0,0,0,.09-.82.74.74,0,0,0-.84-.81,1.23,1.23,0,0,0-1.2,1.34c0,.84.68,1.39,1.47,1.95a3.72,3.72,0,0,1,2,3.24,3.9,3.9,0,0,1-4.11,4C263.89,422.24,262.57,421.21,262.57,419.36Z"/><path d="M279.83,412.69a6.07,6.07,0,0,1-.14,1.2l-.53,2.54h-5.07l-.4,1.9a3,3,0,0,0-.08.62c0,.7.41,1,1.25,1,.67,0,1.13-.43,1.35-1.39l.12-.55h2.47l-.12.57c-.48,2.33-1.87,3.63-4,3.63-2.4,0-3.67-1.2-3.67-3.17a5.83,5.83,0,0,1,.14-1.25l1-4.72c.48-2.28,1.87-3.58,4-3.58S279.83,410.57,279.83,412.69Zm-5.3,1.72H277l.22-1a2.43,2.43,0,0,0,.07-.55c0-.74-.43-1.05-1.18-1.05s-1.12.38-1.34,1.36Z"/><path d="M287.58,409.76l-.5,2.42a2.66,2.66,0,0,0-.91-.16c-1.18,0-2,.79-2.43,2.32L282.13,422h-2.59l2.57-12.24h2.21l-.31,1.92c.62-1.44,1.46-2.16,2.59-2.16A1.85,1.85,0,0,1,287.58,409.76Z"/><path d="M288.8,419.36h2.64l-.55,2.64h-2.64Zm.82-2.91a6.31,6.31,0,0,1,2-3.52,7.26,7.26,0,0,0,2.33-3.8,2.94,2.94,0,0,0,.07-.62c0-.79-.48-1.15-1.29-1.15s-1.21.43-1.42,1.51l-.41,2h-2.52l.41-2.07c.48-2.42,1.92-3.81,4.1-3.81s3.8,1.08,3.8,3.29a7.67,7.67,0,0,1-.17,1.34,8,8,0,0,1-2.69,4.27c-1.32,1.25-1.85,2-2,2.88l-.17.82h-2.3Z"/></g></g></svg>