<svg id="Layer_1" data-name="Layer 1" xmlns="http://www.w3.org/2000/svg" width="640" height="640" viewBox="0 0 640 640"><defs><style>.cls-1{fill:#fae1fa;}.cls-2,.cls-3{isolation:isolate;}.cls-2{opacity:0.05;}</style></defs><rect id="Rectangle_26" data-name="Rectangle 26" class="cls-1" width="640" height="640"/><rect id="Rectangle_36" data-name="Rectangle 36" class="cls-2" width="480" height="480"/><rect id="Rectangle_37" data-name="Rectangle 37" class="cls-2" x="480" y="480" width="160" height="160"/><g id="PINK_PAVILLON" data-name="PINK PAVILLON" class="cls-3"><g class="cls-3"><path d="M169.7,229.2H180c5.63,0,8.7,2.88,8.7,7.94a15.42,15.42,0,0,1-.38,3.26l-1,4.55c-1.54,7.16-5.19,10.81-12.55,10.81h-3.58L167.4,274h-7.23Zm5.83,20.16c2.56,0,4-1.28,4.67-4.48l1.09-5.25a8.88,8.88,0,0,0,.19-1.6c0-1.85-1-2.43-2.56-2.43h-3.39l-2.88,13.76Z"/><path d="M194.53,229.2h7.17L192.17,274H185Z"/><path d="M207,229.2h8.51L216.87,256l5.76-26.82H229L219.49,274h-6.91l-1.79-32.7-7,32.7h-6.4Z"/><path d="M245.28,246l2.56,28h-7.1L239,254.74l-4.29,5.95L231.91,274h-7.17l9.54-44.8h7.16l-3.9,18.37L249.7,229.2h7.68Z"/><path d="M271,229.2h10.3c5.64,0,8.71,2.88,8.71,7.94a14.83,14.83,0,0,1-.39,3.26l-1,4.55c-1.53,7.16-5.18,10.81-12.54,10.81h-3.58L268.71,274h-7.23Zm5.82,20.16c2.56,0,4-1.28,4.68-4.48l1.08-5.25a8.17,8.17,0,0,0,.2-1.6c0-1.85-1-2.43-2.56-2.43h-3.4L274,249.36Z"/><path d="M308.77,229.2,306.53,274h-7.17l.64-8.77h-7.93L289,274h-6.78L299,229.2Zm-8.38,29.95,1.6-21.82-7.75,21.82Z"/><path d="M315.62,229.2h7l-3,35.2,12-35.2h6.79L322.34,274h-9.6Z"/><path d="M341.92,229.2h7.17L339.55,274h-7.16Z"/><path d="M354.34,229.2h7.16l-8.19,38.4h11.46l-1.35,6.4H344.8Z"/><path d="M376.35,229.2h7.17l-8.19,38.4h11.45l-1.34,6.4H366.82Z"/><path d="M389.92,265.62a15.51,15.51,0,0,1,.38-3.27l5.06-23.67c1.41-6.6,5.38-10.12,11.26-10.12,6.21,0,10.37,3.07,10.37,9a16,16,0,0,1-.38,3.32l-5.06,23.68c-1.41,6.6-5.31,10.05-11.26,10.05C394.08,274.64,389.92,271.57,389.92,265.62Zm14.53-1.35,5.18-24.51a7.52,7.52,0,0,0,.19-1.6c0-2.17-1.28-3.2-3.52-3.2-1.85,0-3.2,1-3.84,4l-5.18,24.52a6.93,6.93,0,0,0-.19,1.53c0,2.24,1.34,3.2,3.58,3.2C402.46,268.24,403.81,267.28,404.45,264.27Z"/><path d="M423.71,229.2h8.51L433.63,256l5.76-26.82h6.4L436.25,274h-6.91l-1.79-32.7-7,32.7h-6.39Z"/></g></g><g id="Verden_mødes_under_en_PINK_PAVILLON_når_Teater_Grob_inviterer_til_festival_for_ny_international_dramatik_d._8.-10._juni_2022." data-name="Verden mødes under en PINK PAVILLON når Teater Grob inviterer til festival for ny international dramatik d. 8.-10. juni 2022." class="cls-3"><g class="cls-3"><path d="M162.57,318.2h2.64l-1.11,13.2,4.52-13.2h2.54L165.09,335h-3.6Z"/><path d="M177.78,325.69a5.4,5.4,0,0,1-.14,1.2l-.53,2.54h-5.06l-.41,1.9a2.94,2.94,0,0,0-.07.62c0,.7.41,1,1.25,1,.67,0,1.12-.43,1.34-1.39l.12-.55h2.47l-.12.57c-.48,2.33-1.87,3.63-4,3.63-2.4,0-3.67-1.2-3.67-3.17a6.54,6.54,0,0,1,.14-1.25l1-4.72c.48-2.28,1.87-3.58,4-3.58S177.78,323.58,177.78,325.69Zm-5.3,1.73H175l.21-1a2.43,2.43,0,0,0,.07-.55c0-.74-.43-1.06-1.17-1.06s-1.13.39-1.35,1.37Z"/><path d="M185.54,322.76l-.51,2.42a2.61,2.61,0,0,0-.91-.16c-1.18,0-2,.79-2.42,2.32L180.09,335H177.5l2.56-12.24h2.21l-.31,1.92c.62-1.44,1.46-2.16,2.59-2.16A1.86,1.86,0,0,1,185.54,322.76Z"/><path d="M192.16,331.78a15,15,0,0,0-.41,3.22h-2.4a3.62,3.62,0,0,1,.07-1.25,3,3,0,0,1-2.52,1.49,2.27,2.27,0,0,1-2.49-2.5,7.82,7.82,0,0,1,.16-1.34l1.21-5.66c.48-2.29,1.63-3.22,3.14-3.22a2.36,2.36,0,0,1,2.3,1.37l1.23-5.69H195Zm-2.52-.52.94-4.4a4.1,4.1,0,0,0,.09-.81c0-.92-.5-1.28-1.17-1.28s-1,.58-1.2,1.35l-1.13,5.3a2.83,2.83,0,0,0-.07.63c0,.55.19.93.93.93S189.35,332.6,189.64,331.26Z"/><path d="M202.58,325.69a5.46,5.46,0,0,1-.15,1.2l-.53,2.54h-5.06l-.41,1.9a2.94,2.94,0,0,0-.07.62c0,.7.41,1,1.25,1,.67,0,1.13-.43,1.34-1.39l.12-.55h2.47l-.12.57c-.48,2.33-1.87,3.63-4,3.63-2.4,0-3.67-1.2-3.67-3.17a5.89,5.89,0,0,1,.15-1.25l1-4.72c.48-2.28,1.88-3.58,4-3.58S202.58,323.58,202.58,325.69Zm-5.31,1.73h2.5l.21-1a2.51,2.51,0,0,0,.08-.55c0-.74-.44-1.06-1.18-1.06s-1.13.39-1.34,1.37Z"/><path d="M211.84,325a6,6,0,0,1-.17,1.37L209.82,335h-2.59l1.83-8.52a3.08,3.08,0,0,0,.09-.74c0-.63-.29-1-.93-1s-1.23.46-1.52,1.54L204.88,335h-2.59l2.56-12.24h2.21l-.21,1.27a3,3,0,0,1,2.54-1.51A2.23,2.23,0,0,1,211.84,325Z"/><path d="M229.91,325a6,6,0,0,1-.17,1.37L227.9,335h-2.6l1.83-8.52a3.08,3.08,0,0,0,.09-.74c0-.63-.28-1-.93-1s-1.13.39-1.44,1.33a1.14,1.14,0,0,1,0,.24L223,335h-2.59l1.82-8.52a2.7,2.7,0,0,0,.1-.74c0-.63-.29-1-.94-1s-1.27.49-1.53,1.71L218,335h-2.6L218,322.76h2.21L220,324a3,3,0,0,1,2.55-1.51,2.19,2.19,0,0,1,2.35,1.61,3,3,0,0,1,2.59-1.61A2.22,2.22,0,0,1,229.91,325Z"/><path d="M238.55,324.15a3.1,3.1,0,0,1,.36,1.54,4.9,4.9,0,0,1-.12,1.17l-1.06,4.83c-.48,2.3-1.87,3.55-3.93,3.55a4.08,4.08,0,0,1-2.33-.6l-.77,1.13-1.08-.82.91-1.34a3.1,3.1,0,0,1-.36-1.54,5.41,5.41,0,0,1,.12-1.17l1.06-4.83c.48-2.3,1.87-3.55,3.94-3.55a4.06,4.06,0,0,1,2.32.6l.77-1.13,1.08.82ZM236,328l-3.1,4.59a1.07,1.07,0,0,0,1,.4c.79,0,1.15-.55,1.32-1.34Zm-2.83,1.78,3.09-4.59a1.05,1.05,0,0,0-1-.41c-.79,0-1.15.56-1.32,1.35Z"/><path d="M246.81,331.78a14.31,14.31,0,0,0-.41,3.22H244a3.37,3.37,0,0,1,.07-1.25,3,3,0,0,1-2.52,1.49,2.27,2.27,0,0,1-2.5-2.5,7.91,7.91,0,0,1,.17-1.34l1.2-5.66c.48-2.29,1.63-3.22,3.15-3.22a2.36,2.36,0,0,1,2.3,1.37l1.22-5.69h2.6Zm-2.52-.52.93-4.4a4.26,4.26,0,0,0,.1-.81c0-.92-.51-1.28-1.18-1.28s-1,.58-1.2,1.35l-1.13,5.3a3.57,3.57,0,0,0-.07.63c0,.55.19.93.94.93S244,332.6,244.29,331.26Z"/><path d="M257.22,325.69a6.07,6.07,0,0,1-.14,1.2l-.53,2.54h-5.06l-.41,1.9a2.94,2.94,0,0,0-.07.62c0,.7.4,1,1.24,1,.68,0,1.13-.43,1.35-1.39l.12-.55h2.47l-.12.57c-.48,2.33-1.87,3.63-4,3.63-2.4,0-3.67-1.2-3.67-3.17a6.54,6.54,0,0,1,.14-1.25l1-4.72c.48-2.28,1.87-3.58,4-3.58S257.22,323.58,257.22,325.69Zm-5.3,1.73h2.49l.22-1a2.43,2.43,0,0,0,.07-.55c0-.74-.43-1.06-1.17-1.06s-1.13.39-1.35,1.37Z"/><path d="M257.15,332.36a5.94,5.94,0,0,1,.12-1.06l.05-.19h2.47l-.1.41a3.36,3.36,0,0,0-.07.58.88.88,0,0,0,1,1,1.35,1.35,0,0,0,1.32-1.45c0-.81-.65-1.34-1.39-1.89a3.78,3.78,0,0,1-2-3.29,3.73,3.73,0,0,1,3.89-3.91c1.77,0,3.09.93,3.09,2.76a5,5,0,0,1-.12,1.08h-2.4a5.51,5.51,0,0,0,.1-.82.74.74,0,0,0-.84-.81,1.23,1.23,0,0,0-1.2,1.34c0,.84.67,1.39,1.46,1.95a3.72,3.72,0,0,1,2,3.24,3.89,3.89,0,0,1-4.1,4C258.47,335.24,257.15,334.21,257.15,332.36Z"/><path d="M279,322.76,276.47,335h-2.21l.22-1.27a3,3,0,0,1-2.55,1.51,2.22,2.22,0,0,1-2.44-2.45,5.89,5.89,0,0,1,.16-1.37l1.85-8.66h2.59l-1.82,8.52a3.15,3.15,0,0,0-.1.74.83.83,0,0,0,.94,1c.67,0,1.27-.48,1.54-1.7l1.8-8.52Z"/><path d="M287.87,325a6,6,0,0,1-.17,1.37L285.85,335h-2.59l1.83-8.52a3.08,3.08,0,0,0,.09-.74c0-.63-.29-1-.93-1s-1.23.46-1.52,1.54L280.91,335h-2.59l2.57-12.24h2.2l-.21,1.27a3,3,0,0,1,2.54-1.51A2.23,2.23,0,0,1,287.87,325Z"/><path d="M295.79,331.78a15,15,0,0,0-.41,3.22H293a3.62,3.62,0,0,1,.07-1.25,3,3,0,0,1-2.52,1.49,2.27,2.27,0,0,1-2.49-2.5,7.82,7.82,0,0,1,.16-1.34l1.21-5.66c.48-2.29,1.63-3.22,3.14-3.22a2.36,2.36,0,0,1,2.3,1.37l1.23-5.69h2.59Zm-2.52-.52.94-4.4a4.1,4.1,0,0,0,.09-.81c0-.92-.5-1.28-1.17-1.28s-1,.58-1.2,1.35l-1.13,5.3a2.83,2.83,0,0,0-.07.63c0,.55.19.93.93.93S293,332.6,293.27,331.26Z"/><path d="M306.21,325.69a5.46,5.46,0,0,1-.15,1.2l-.53,2.54h-5.06l-.41,1.9a2.94,2.94,0,0,0-.07.62c0,.7.41,1,1.25,1,.67,0,1.13-.43,1.34-1.39l.12-.55h2.47l-.12.57c-.48,2.33-1.87,3.63-4,3.63-2.4,0-3.67-1.2-3.67-3.17a6.54,6.54,0,0,1,.14-1.25l1-4.72c.48-2.28,1.87-3.58,4-3.58S306.21,323.58,306.21,325.69Zm-5.31,1.73h2.5l.21-1a2.51,2.51,0,0,0,.08-.55c0-.74-.44-1.06-1.18-1.06s-1.13.39-1.35,1.37Z"/><path d="M314,322.76l-.51,2.42a2.61,2.61,0,0,0-.91-.16c-1.17,0-2,.79-2.42,2.32L308.51,335h-2.59l2.56-12.24h2.21l-.31,1.92c.63-1.44,1.47-2.16,2.59-2.16A1.86,1.86,0,0,1,314,322.76Z"/><path d="M325.6,325.69a5.46,5.46,0,0,1-.15,1.2l-.52,2.54h-5.07l-.41,1.9a2.94,2.94,0,0,0-.07.62c0,.7.41,1,1.25,1,.67,0,1.13-.43,1.34-1.39l.12-.55h2.47l-.12.57c-.48,2.33-1.87,3.63-4,3.63-2.4,0-3.67-1.2-3.67-3.17a5.89,5.89,0,0,1,.15-1.25l1-4.72c.48-2.28,1.88-3.58,4-3.58S325.6,323.58,325.6,325.69Zm-5.31,1.73h2.5l.21-1a2.51,2.51,0,0,0,.08-.55c0-.74-.44-1.06-1.18-1.06s-1.13.39-1.34,1.37Z"/><path d="M334.86,325a6,6,0,0,1-.17,1.37L332.84,335h-2.59l1.83-8.52a3.08,3.08,0,0,0,.09-.74c0-.63-.29-1-.93-1s-1.23.46-1.52,1.54L327.9,335h-2.59l2.57-12.24h2.2l-.21,1.27a3,3,0,0,1,2.54-1.51A2.23,2.23,0,0,1,334.86,325Z"/><path d="M342.11,318.2H346c2.11,0,3.27,1.08,3.27,3a5.42,5.42,0,0,1-.15,1.22l-.36,1.7c-.57,2.69-1.94,4.06-4.7,4.06h-1.35L341.24,335h-2.71Zm2.18,7.56c1,0,1.51-.48,1.75-1.68l.41-2a2.91,2.91,0,0,0,.07-.6c0-.7-.38-.91-1-.91h-1.27l-1.08,5.16Z"/><path d="M351.42,318.2h2.69L350.53,335h-2.69Z"/><path d="M356.07,318.2h3.2l.52,10.06L362,318.2h2.4L360.78,335h-2.59l-.68-12.26L354.9,335h-2.4Z"/><path d="M370.45,324.51l1,10.49h-2.66l-.65-7.23L366.49,330l-1.06,5h-2.68l3.57-16.8H369l-1.46,6.89,4.56-6.89H375Z"/><path d="M380.1,318.2H384c2.11,0,3.27,1.08,3.27,3a5.42,5.42,0,0,1-.15,1.22l-.36,1.7c-.57,2.69-1.94,4.06-4.7,4.06h-1.35L379.23,335h-2.71Zm2.18,7.56c1,0,1.51-.48,1.75-1.68l.41-2a2.91,2.91,0,0,0,.07-.6c0-.7-.38-.91-1-.91h-1.27l-1.08,5.16Z"/><path d="M394.26,318.2l-.84,16.8h-2.69l.24-3.29h-3L386.84,335H384.3l6.31-16.8Zm-3.15,11.23.6-8.18-2.9,8.18Z"/><path d="M396.83,318.2h2.64l-1.11,13.2,4.51-13.2h2.55L399.35,335h-3.6Z"/><path d="M406.69,318.2h2.69L405.8,335h-2.69Z"/><path d="M411.35,318.2H414L411,332.6h4.3l-.51,2.4h-7Z"/><path d="M419.6,318.2h2.69l-3.07,14.4h4.29L423,335h-7Z"/><path d="M424.69,331.85a6,6,0,0,1,.14-1.22l1.9-8.88c.53-2.47,2-3.79,4.22-3.79s3.89,1.15,3.89,3.38a6.22,6.22,0,0,1-.14,1.25l-1.9,8.88c-.53,2.47-2,3.77-4.22,3.77S424.69,334.09,424.69,331.85Zm5.45-.5,1.94-9.19a2.77,2.77,0,0,0,.07-.6c0-.82-.48-1.2-1.32-1.2-.69,0-1.2.38-1.44,1.51l-1.94,9.19a2.6,2.6,0,0,0-.07.58c0,.84.5,1.2,1.34,1.2C429.39,332.84,429.9,332.48,430.14,331.35Z"/><path d="M437.36,318.2h3.19l.53,10.06,2.16-10.06h2.4L442.07,335h-2.6l-.67-12.26L436.18,335h-2.4Z"/><path d="M445,335h-.89l.55-2.64h2.64l-.48,2.38-2.16,3.14h-1.3Z"/><path d="M462.18,325a6,6,0,0,1-.17,1.37L460.16,335h-2.59l1.82-8.52a3.15,3.15,0,0,0,.1-.74c0-.63-.29-1-.94-1s-1.22.46-1.51,1.54L455.22,335h-2.6l2.57-12.24h2.21l-.22,1.27a3,3,0,0,1,2.55-1.51A2.23,2.23,0,0,1,462.18,325Z"/><path d="M471,325.42a7,7,0,0,1-.16,1.49l-1,4.87a15,15,0,0,0-.41,3.22H467a4.59,4.59,0,0,1,.07-1.18,2.91,2.91,0,0,1-2.52,1.42,2.38,2.38,0,0,1-2.5-2.62c0-2.49,1.54-3.74,3.89-4.58,1.92-.67,2.21-.86,2.36-1.51v0l.07-.36a2.54,2.54,0,0,0,.07-.58c0-.62-.34-.91-1-.91s-1.08.46-1.25,1.3l-.12.58h-2.44l.16-.7c.51-2.14,1.76-3.36,3.77-3.36S471,323.41,471,325.42Zm-3.74,6.17.53-2.52a6.15,6.15,0,0,1-1.44.77,2.43,2.43,0,0,0-1.59,2.23.91.91,0,0,0,1,1C466.45,333.06,467,332.62,467.24,331.59Zm-.7-12a2.35,2.35,0,0,1,2.36-2.32,1.86,1.86,0,0,1,2,1.87,2.36,2.36,0,0,1-2.35,2.33A1.9,1.9,0,0,1,466.54,319.61Zm1.4-.11a.66.66,0,0,0,.69.71.91.91,0,0,0,.89-.93.68.68,0,0,0-.72-.72A.89.89,0,0,0,467.94,319.5Z"/><path d="M478.93,322.76l-.51,2.42a2.61,2.61,0,0,0-.91-.16c-1.17,0-2,.79-2.42,2.32L473.48,335h-2.59l2.57-12.24h2.2l-.31,1.92c.63-1.44,1.47-2.16,2.59-2.16A1.86,1.86,0,0,1,478.93,322.76Z"/></g><g class="cls-3"><path d="M164.8,349.6H162l.53-2.4h8.21l-.53,2.4h-2.76L164.44,364h-2.69Z"/><path d="M176.44,354.69a6.07,6.07,0,0,1-.14,1.2l-.53,2.54H170.7l-.4,1.9a3,3,0,0,0-.08.62c0,.7.41,1,1.25,1,.67,0,1.13-.43,1.35-1.39l.12-.55h2.47l-.12.57c-.48,2.33-1.87,3.63-4,3.63-2.4,0-3.67-1.2-3.67-3.17a5.83,5.83,0,0,1,.14-1.25l1-4.72c.48-2.28,1.87-3.58,4-3.58S176.44,352.58,176.44,354.69Zm-5.3,1.73h2.49l.22-1a2.43,2.43,0,0,0,.07-.55c0-.74-.43-1.06-1.18-1.06s-1.12.39-1.34,1.37Z"/><path d="M185.18,354.42a7.09,7.09,0,0,1-.17,1.49l-1,4.87a15,15,0,0,0-.41,3.22h-2.4a4.59,4.59,0,0,1,.07-1.18,2.91,2.91,0,0,1-2.52,1.42,2.37,2.37,0,0,1-2.49-2.62c0-2.49,1.53-3.74,3.89-4.58,1.92-.67,2.2-.86,2.35-1.51v0l.07-.36a2.54,2.54,0,0,0,.07-.58c0-.62-.33-.91-1-.91s-1.08.46-1.24,1.3l-.12.58h-2.45l.17-.7c.5-2.14,1.75-3.36,3.76-3.36S185.18,352.41,185.18,354.42Zm-3.75,6.17.53-2.52a6.15,6.15,0,0,1-1.44.77,2.42,2.42,0,0,0-1.58,2.23.9.9,0,0,0,1,1C180.64,362.06,181.14,361.62,181.43,360.59Z"/><path d="M188.94,361a2.23,2.23,0,0,0,0,.34c0,.53.48.62.88.62a2.31,2.31,0,0,0,.75-.12l-.29,2.19a3.91,3.91,0,0,1-1.37.19c-1.61,0-2.64-.79-2.64-2.26a3.38,3.38,0,0,1,.1-.81l1.53-7.25h-1.39l.46-2.16h1.51l.94-3.31h2.25l-.69,3.31h1.82l-.46,2.16h-1.84Z"/><path d="M200.78,354.69a5.46,5.46,0,0,1-.15,1.2l-.53,2.54H195l-.41,1.9a2.94,2.94,0,0,0-.07.62c0,.7.41,1,1.25,1,.67,0,1.13-.43,1.34-1.39l.12-.55h2.47l-.12.57c-.48,2.33-1.87,3.63-4,3.63-2.4,0-3.67-1.2-3.67-3.17a5.89,5.89,0,0,1,.15-1.25l1-4.72c.48-2.28,1.88-3.58,4-3.58S200.78,352.58,200.78,354.69Zm-5.31,1.73H198l.21-1a2.51,2.51,0,0,0,.08-.55c0-.74-.44-1.06-1.18-1.06s-1.13.39-1.34,1.37Z"/><path d="M208.53,351.76l-.51,2.42a2.61,2.61,0,0,0-.91-.16c-1.17,0-2,.79-2.42,2.32L203.08,364h-2.59l2.57-12.24h2.2l-.31,1.92c.63-1.44,1.47-2.16,2.59-2.16A1.86,1.86,0,0,1,208.53,351.76Z"/><path d="M211.45,361a6.47,6.47,0,0,1,.15-1.34l1.9-8.88c.55-2.55,1.94-3.77,4.15-3.77,2.57,0,3.81,1.2,3.81,3.29a6.11,6.11,0,0,1-.14,1.29l-.22,1.08h-2.54l.31-1.51a2.77,2.77,0,0,0,.07-.6c0-.84-.48-1.17-1.27-1.17s-1.25.4-1.49,1.48l-2,9.27a2.7,2.7,0,0,0-.07.6c0,.81.53,1.15,1.27,1.15s1.27-.38,1.51-1.46l.75-3.46H216.3l.51-2.4h3.89l-1.28,5.93c-.52,2.49-1.92,3.79-4.1,3.79S211.45,363.21,211.45,361Z"/><path d="M228.35,351.76l-.5,2.42a2.66,2.66,0,0,0-.91-.16c-1.18,0-2,.79-2.43,2.32L222.9,364h-2.59l2.57-12.24h2.21l-.31,1.92c.62-1.44,1.46-2.16,2.59-2.16A1.85,1.85,0,0,1,228.35,351.76Z"/><path d="M227.32,361.07a4.85,4.85,0,0,1,.12-1.17l1.05-4.83c.49-2.3,1.88-3.55,3.94-3.55s3.63,1.1,3.63,3.17a5.47,5.47,0,0,1-.12,1.17l-1.06,4.83c-.48,2.3-1.87,3.55-3.94,3.55S227.32,363.14,227.32,361.07Zm5-.43,1.15-5.28a2.22,2.22,0,0,0,.08-.55c0-.72-.41-1-1.16-1s-1.15.56-1.32,1.35l-1.15,5.28a2.18,2.18,0,0,0-.07.55c0,.72.41,1,1.15,1S232.14,361.43,232.31,360.64Z"/><path d="M245.44,354a7.11,7.11,0,0,1-.17,1.34l-1.2,5.66c-.48,2.28-1.63,3.22-3.14,3.22a2.36,2.36,0,0,1-2.5-2.06l-.74,1.82h-1.88l3.56-16.8H242l-1.11,5.25a2.87,2.87,0,0,1,2.09-.93A2.27,2.27,0,0,1,245.44,354Zm-2.69.69c0-.55-.19-.94-.93-.94s-1.33.39-1.61,1.73l-.92,4.32a5.24,5.24,0,0,0-.09.89c0,.91.48,1.27,1.15,1.27s1-.57,1.2-1.34l1.13-5.3A2.89,2.89,0,0,0,242.75,354.71Z"/><path d="M251.61,351.76h2.59L251.61,364H249Zm.93-4.3h2.55l-.58,2.79H252Z"/><path d="M263.08,354a6,6,0,0,1-.17,1.37L261.06,364h-2.59l1.82-8.52a2.7,2.7,0,0,0,.1-.74c0-.63-.29-1-.94-1s-1.22.46-1.51,1.54L256.12,364h-2.59l2.56-12.24h2.21l-.21,1.27a3,3,0,0,1,2.54-1.51A2.23,2.23,0,0,1,263.08,354Z"/><path d="M264.81,351.76h2.56l-.38,8.81,3.38-8.81h2.52l-5,12.24h-3.24Z"/><path d="M274.14,351.76h2.59L274.14,364h-2.59Zm.94-4.3h2.54l-.57,2.79H274.5Z"/><path d="M280,361a2.33,2.33,0,0,0,0,.34c0,.53.48.62.89.62a2.31,2.31,0,0,0,.75-.12l-.29,2.19a3.91,3.91,0,0,1-1.37.19c-1.61,0-2.64-.79-2.64-2.26a2.94,2.94,0,0,1,.1-.81l1.53-7.25h-1.39l.46-2.16h1.51l.93-3.31h2.26l-.7,3.31h1.83l-.46,2.16h-1.85Z"/><path d="M291.85,354.69a5.4,5.4,0,0,1-.14,1.2l-.53,2.54h-5.06l-.41,1.9a2.94,2.94,0,0,0-.07.62c0,.7.41,1,1.25,1,.67,0,1.12-.43,1.34-1.39l.12-.55h2.47l-.12.57c-.48,2.33-1.87,3.63-4,3.63-2.4,0-3.67-1.2-3.67-3.17a6.54,6.54,0,0,1,.14-1.25l1-4.72c.48-2.28,1.87-3.58,4-3.58S291.85,352.58,291.85,354.69Zm-5.3,1.73h2.5l.21-1a2.43,2.43,0,0,0,.07-.55c0-.74-.43-1.06-1.17-1.06s-1.13.39-1.35,1.37Z"/><path d="M299.61,351.76l-.51,2.42a2.61,2.61,0,0,0-.91-.16c-1.18,0-2,.79-2.42,2.32L294.16,364h-2.59l2.56-12.24h2.21l-.31,1.92c.62-1.44,1.46-2.16,2.59-2.16A1.86,1.86,0,0,1,299.61,351.76Z"/><path d="M307.36,354.69a5.46,5.46,0,0,1-.15,1.2l-.52,2.54h-5.07l-.41,1.9a3.79,3.79,0,0,0-.07.62c0,.7.41,1,1.25,1,.67,0,1.13-.43,1.34-1.39l.12-.55h2.48l-.12.57c-.48,2.33-1.88,3.63-4,3.63-2.4,0-3.68-1.2-3.68-3.17a5.89,5.89,0,0,1,.15-1.25l1-4.72c.48-2.28,1.88-3.58,4-3.58S307.36,352.58,307.36,354.69Zm-5.31,1.73h2.5l.22-1a3.17,3.17,0,0,0,.07-.55c0-.74-.43-1.06-1.18-1.06s-1.13.39-1.34,1.37Z"/><path d="M315.11,351.76l-.5,2.42a2.72,2.72,0,0,0-.92-.16c-1.17,0-2,.79-2.42,2.32L309.66,364h-2.59l2.57-12.24h2.21l-.32,1.92c.63-1.44,1.47-2.16,2.6-2.16A1.85,1.85,0,0,1,315.11,351.76Z"/><path d="M321.44,361a2.23,2.23,0,0,0,0,.34c0,.53.48.62.88.62a2.31,2.31,0,0,0,.75-.12l-.29,2.19a3.91,3.91,0,0,1-1.37.19c-1.61,0-2.64-.79-2.64-2.26a3.38,3.38,0,0,1,.1-.81l1.53-7.25H319l.46-2.16h1.51l.94-3.31h2.25l-.69,3.31h1.82l-.46,2.16H323Z"/><path d="M326.68,351.76h2.59L326.68,364h-2.6Zm.93-4.3h2.55l-.58,2.79H327Z"/><path d="M332.22,347.2h2.59L331.24,364h-2.6Z"/><path d="M343.26,350.2l-.34,1.56h1.83l-.46,2.16h-1.82L340.31,364h-2.57l2.16-10.08h-1.39l.45-2.16h1.4l.45-2.16a2.89,2.89,0,0,1,3.07-2.64,3.85,3.85,0,0,1,1.85.41l-.43,2.11a2.41,2.41,0,0,0-1.06-.27C343.67,349.21,343.4,349.53,343.26,350.2Z"/><path d="M352.57,354.69a6.07,6.07,0,0,1-.14,1.2l-.53,2.54h-5.06l-.41,1.9a2.94,2.94,0,0,0-.07.62c0,.7.4,1,1.24,1,.68,0,1.13-.43,1.35-1.39l.12-.55h2.47l-.12.57c-.48,2.33-1.87,3.63-4,3.63-2.4,0-3.67-1.2-3.67-3.17a5.83,5.83,0,0,1,.14-1.25l1-4.72c.48-2.28,1.87-3.58,4-3.58S352.57,352.58,352.57,354.69Zm-5.3,1.73h2.49l.22-1a2.43,2.43,0,0,0,.07-.55c0-.74-.43-1.06-1.17-1.06s-1.13.39-1.35,1.37Z"/><path d="M352.5,361.36a5.94,5.94,0,0,1,.12-1.06l.05-.19h2.47l-.1.41a2.6,2.6,0,0,0-.07.58.88.88,0,0,0,1,1,1.35,1.35,0,0,0,1.32-1.45c0-.81-.65-1.34-1.39-1.89a3.78,3.78,0,0,1-2-3.29,3.73,3.73,0,0,1,3.89-3.91c1.77,0,3.09.93,3.09,2.76a5,5,0,0,1-.12,1.08h-2.4a5.51,5.51,0,0,0,.1-.82.74.74,0,0,0-.84-.81,1.23,1.23,0,0,0-1.2,1.34c0,.84.67,1.39,1.46,1.95a3.72,3.72,0,0,1,2,3.24,3.89,3.89,0,0,1-4.1,4C353.82,364.24,352.5,363.21,352.5,361.36Z"/><path d="M364.35,361a2.23,2.23,0,0,0,0,.34c0,.53.48.62.89.62a2.3,2.3,0,0,0,.74-.12l-.29,2.19a3.85,3.85,0,0,1-1.37.19c-1.61,0-2.64-.79-2.64-2.26a3.38,3.38,0,0,1,.1-.81l1.53-7.25h-1.39l.46-2.16h1.51l.94-3.31H367l-.69,3.31h1.82l-.45,2.16h-1.85Z"/><path d="M369.59,351.76h2.59L369.59,364H367Zm.93-4.3h2.55l-.58,2.79H370Z"/><path d="M373.47,351.76H376l-.38,8.81,3.38-8.81h2.52l-5,12.24h-3.24Z"/><path d="M388.93,354.42a7.09,7.09,0,0,1-.17,1.49l-1,4.87a13.71,13.71,0,0,0-.41,3.22H385a4.59,4.59,0,0,1,.07-1.18,2.92,2.92,0,0,1-2.52,1.42,2.38,2.38,0,0,1-2.5-2.62c0-2.49,1.54-3.74,3.89-4.58,1.92-.67,2.21-.86,2.35-1.51v0l.07-.36a2.59,2.59,0,0,0,.08-.58c0-.62-.34-.91-1-.91s-1.08.46-1.25,1.3l-.12.58h-2.45l.17-.7c.5-2.14,1.75-3.36,3.77-3.36S388.93,352.41,388.93,354.42Zm-3.74,6.17.52-2.52a5.93,5.93,0,0,1-1.44.77,2.44,2.44,0,0,0-1.58,2.23.91.91,0,0,0,1,1C384.39,362.06,384.9,361.62,385.19,360.59Z"/><path d="M392.46,347.2h2.59L391.47,364h-2.59Z"/><path d="M403.5,350.2l-.34,1.56H405l-.46,2.16h-1.82L400.55,364H398l2.16-10.08h-1.39l.45-2.16h1.39l.46-2.16a2.89,2.89,0,0,1,3.07-2.64,3.85,3.85,0,0,1,1.85.41l-.43,2.11a2.41,2.41,0,0,0-1.06-.27C403.91,349.21,403.64,349.53,403.5,350.2Z"/><path d="M404,361.07a4.85,4.85,0,0,1,.12-1.17l1.05-4.83c.48-2.3,1.87-3.55,3.94-3.55s3.62,1.1,3.62,3.17a4.9,4.9,0,0,1-.12,1.17l-1.05,4.83c-.48,2.3-1.88,3.55-3.94,3.55S404,363.14,404,361.07Zm5-.43,1.15-5.28a2.18,2.18,0,0,0,.07-.55c0-.72-.41-1-1.15-1s-1.15.56-1.32,1.35l-1.15,5.28a2.18,2.18,0,0,0-.07.55c0,.72.4,1,1.15,1S408.85,361.43,409,360.64Z"/><path d="M420.56,351.76l-.5,2.42a2.66,2.66,0,0,0-.91-.16c-1.18,0-2,.79-2.43,2.32L415.11,364h-2.59l2.57-12.24h2.21l-.31,1.92c.62-1.44,1.46-2.16,2.59-2.16A1.85,1.85,0,0,1,420.56,351.76Z"/><path d="M432.49,354a6,6,0,0,1-.17,1.37L430.47,364h-2.59l1.83-8.52a3.08,3.08,0,0,0,.09-.74c0-.63-.29-1-.93-1s-1.23.46-1.52,1.54L425.53,364h-2.59l2.57-12.24h2.2L427.5,353a3,3,0,0,1,2.54-1.51A2.23,2.23,0,0,1,432.49,354Z"/><path d="M436.57,365.42c-.79,1.77-1.75,2.54-3.31,2.54a4.45,4.45,0,0,1-1.95-.43l.46-2.11a3,3,0,0,0,1.22.28c.63,0,.94-.28,1.23-.93l.21-.53-.26-12.48h2.54l-.14,8.4,3.31-8.4h2.52Z"/></g><g class="cls-3"><path d="M162.28,380.76h2.59L162.28,393h-2.59Zm.94-4.3h2.54l-.58,2.79h-2.54Z"/><path d="M173.75,383a6,6,0,0,1-.17,1.37L171.74,393h-2.6l1.83-8.52a3.08,3.08,0,0,0,.09-.74c0-.63-.28-1-.93-1s-1.23.46-1.51,1.54L166.79,393H164.2l2.57-12.24H169l-.22,1.27a3,3,0,0,1,2.54-1.51A2.22,2.22,0,0,1,173.75,383Z"/><path d="M177.5,390a1.47,1.47,0,0,0-.05.34c0,.53.48.62.89.62a2.3,2.3,0,0,0,.74-.12l-.29,2.19a3.85,3.85,0,0,1-1.37.19c-1.6,0-2.64-.79-2.64-2.26a3.38,3.38,0,0,1,.1-.81l1.54-7.25H175l.46-2.16H177l.94-3.31h2.25l-.69,3.31h1.82l-.45,2.16H179Z"/><path d="M189.33,383.69a5.46,5.46,0,0,1-.15,1.2l-.52,2.54h-5.07l-.41,1.9a3.79,3.79,0,0,0-.07.62c0,.7.41,1,1.25,1,.67,0,1.13-.43,1.34-1.39l.12-.55h2.48l-.12.57c-.48,2.33-1.88,3.63-4,3.63-2.4,0-3.68-1.2-3.68-3.17a5.89,5.89,0,0,1,.15-1.25l1-4.72c.48-2.28,1.87-3.58,4-3.58S189.33,381.58,189.33,383.69ZM184,385.42h2.5l.22-1a3.17,3.17,0,0,0,.07-.55c0-.74-.43-1.06-1.18-1.06s-1.13.39-1.34,1.37Z"/><path d="M197.08,380.76l-.5,2.42a2.72,2.72,0,0,0-.92-.16c-1.17,0-2,.79-2.42,2.32L191.63,393H189l2.57-12.24h2.21l-.32,1.92c.63-1.44,1.47-2.16,2.6-2.16A1.85,1.85,0,0,1,197.08,380.76Z"/><path d="M205.17,383a6,6,0,0,1-.17,1.37L203.15,393h-2.59l1.82-8.52a2.7,2.7,0,0,0,.1-.74c0-.63-.29-1-.94-1s-1.22.46-1.51,1.54L198.21,393h-2.59l2.56-12.24h2.21l-.21,1.27a3,3,0,0,1,2.54-1.51A2.23,2.23,0,0,1,205.17,383Z"/><path d="M214,383.42a7.09,7.09,0,0,1-.17,1.49l-1,4.87a15,15,0,0,0-.41,3.22H210a4.59,4.59,0,0,1,.07-1.18,2.91,2.91,0,0,1-2.52,1.42,2.37,2.37,0,0,1-2.49-2.62c0-2.49,1.53-3.74,3.89-4.58,1.92-.67,2.2-.86,2.35-1.51v0l.07-.36a2.54,2.54,0,0,0,.07-.58c0-.62-.33-.91-1-.91s-1.08.46-1.24,1.3l-.13.58h-2.44l.17-.7c.5-2.14,1.75-3.36,3.76-3.36S214,381.41,214,383.42Zm-3.75,6.17.53-2.52a6.15,6.15,0,0,1-1.44.77,2.42,2.42,0,0,0-1.58,2.23.9.9,0,0,0,1,1C209.44,391.06,209.94,390.62,210.23,389.59Z"/><path d="M217.74,390a2.33,2.33,0,0,0-.05.34c0,.53.48.62.89.62a2.31,2.31,0,0,0,.75-.12l-.29,2.19a3.91,3.91,0,0,1-1.37.19c-1.61,0-2.64-.79-2.64-2.26a2.94,2.94,0,0,1,.1-.81l1.53-7.25h-1.39l.46-2.16h1.51l.93-3.31h2.26l-.7,3.31h1.83l-.46,2.16h-1.85Z"/><path d="M223,380.76h2.6L223,393h-2.59Zm.94-4.3h2.54l-.57,2.79h-2.55Z"/><path d="M225.37,390.07a5.41,5.41,0,0,1,.12-1.17l1.06-4.83c.48-2.3,1.87-3.55,3.94-3.55s3.62,1.1,3.62,3.17a4.9,4.9,0,0,1-.12,1.17l-1.06,4.83c-.48,2.3-1.87,3.55-3.93,3.55S225.37,392.14,225.37,390.07Zm5-.43,1.15-5.28a2.18,2.18,0,0,0,.07-.55c0-.72-.41-1-1.15-1s-1.15.56-1.32,1.35L228,389.4a2.22,2.22,0,0,0-.08.55c0,.72.41,1,1.16,1S230.2,390.43,230.37,389.64Z"/><path d="M243.42,383a6,6,0,0,1-.16,1.37L241.41,393h-2.6l1.83-8.52a3.08,3.08,0,0,0,.09-.74c0-.63-.28-1-.93-1s-1.23.46-1.51,1.54L236.46,393h-2.59l2.57-12.24h2.21l-.22,1.27a3,3,0,0,1,2.54-1.51A2.22,2.22,0,0,1,243.42,383Z"/><path d="M252.23,383.42a7.09,7.09,0,0,1-.17,1.49l-1,4.87a14,14,0,0,0-.4,3.22h-2.4a4.59,4.59,0,0,1,.07-1.18,2.92,2.92,0,0,1-2.52,1.42,2.38,2.38,0,0,1-2.5-2.62c0-2.49,1.54-3.74,3.89-4.58,1.92-.67,2.21-.86,2.35-1.51v0l.07-.36a2.59,2.59,0,0,0,.08-.58c0-.62-.34-.91-1-.91s-1.08.46-1.25,1.3l-.12.58h-2.45l.17-.7c.5-2.14,1.75-3.36,3.77-3.36S252.23,381.41,252.23,383.42Zm-3.74,6.17.52-2.52a5.93,5.93,0,0,1-1.44.77,2.44,2.44,0,0,0-1.58,2.23.91.91,0,0,0,1,1C247.69,391.06,248.2,390.62,248.49,389.59Z"/><path d="M255.76,376.2h2.59L254.77,393h-2.59Z"/><path d="M268.67,389.78a15,15,0,0,0-.41,3.22h-2.4a3.62,3.62,0,0,1,.07-1.25,3,3,0,0,1-2.52,1.49,2.27,2.27,0,0,1-2.49-2.5,7,7,0,0,1,.17-1.34l1.2-5.66c.48-2.29,1.63-3.22,3.14-3.22a2.36,2.36,0,0,1,2.3,1.37L269,376.2h2.59Zm-2.52-.52.94-4.4a4.1,4.1,0,0,0,.09-.81c0-.92-.5-1.28-1.17-1.28s-1,.58-1.2,1.35l-1.13,5.3a2.83,2.83,0,0,0-.07.63c0,.55.19.93.93.93S265.86,390.6,266.15,389.26Z"/><path d="M277.86,380.76l-.5,2.42a2.66,2.66,0,0,0-.91-.16c-1.18,0-2,.79-2.43,2.32L272.41,393h-2.59l2.57-12.24h2.21l-.31,1.92c.62-1.44,1.46-2.16,2.59-2.16A1.85,1.85,0,0,1,277.86,380.76Z"/><path d="M285.28,383.42a7.09,7.09,0,0,1-.17,1.49l-1,4.87a15,15,0,0,0-.41,3.22h-2.4a4.31,4.31,0,0,1,.08-1.18,2.93,2.93,0,0,1-2.52,1.42,2.38,2.38,0,0,1-2.5-2.62c0-2.49,1.53-3.74,3.89-4.58,1.92-.67,2.21-.86,2.35-1.51v0l.07-.36a2.54,2.54,0,0,0,.07-.58c0-.62-.33-.91-1-.91s-1.08.46-1.24,1.3l-.12.58h-2.45l.17-.7c.5-2.14,1.75-3.36,3.77-3.36S285.28,381.41,285.28,383.42Zm-3.75,6.17.53-2.52a6.15,6.15,0,0,1-1.44.77,2.42,2.42,0,0,0-1.58,2.23.9.9,0,0,0,1,1C280.74,391.06,281.24,390.62,281.53,389.59Z"/><path d="M299.63,383a6,6,0,0,1-.17,1.37L297.61,393H295l1.83-8.52a3.08,3.08,0,0,0,.09-.74c0-.63-.29-1-.93-1s-1.13.39-1.44,1.33a1.14,1.14,0,0,1-.05.24L292.67,393h-2.59l1.82-8.52a3.15,3.15,0,0,0,.1-.74c0-.63-.29-1-.94-1s-1.27.49-1.53,1.71L287.72,393h-2.59l2.57-12.24h2.21l-.22,1.27a3,3,0,0,1,2.55-1.51,2.19,2.19,0,0,1,2.35,1.61,3,3,0,0,1,2.59-1.61A2.23,2.23,0,0,1,299.63,383Z"/><path d="M308.44,383.42a7.09,7.09,0,0,1-.17,1.49l-1,4.87a15,15,0,0,0-.41,3.22h-2.4a4.59,4.59,0,0,1,.07-1.18,2.91,2.91,0,0,1-2.52,1.42,2.37,2.37,0,0,1-2.49-2.62c0-2.49,1.53-3.74,3.89-4.58,1.92-.67,2.2-.86,2.35-1.51v0l.07-.36a2.54,2.54,0,0,0,.07-.58c0-.62-.33-.91-1-.91s-1.08.46-1.24,1.3l-.12.58h-2.45l.17-.7c.5-2.14,1.75-3.36,3.76-3.36S308.44,381.41,308.44,383.42Zm-3.75,6.17.53-2.52a6.15,6.15,0,0,1-1.44.77,2.42,2.42,0,0,0-1.58,2.23.9.9,0,0,0,1,1C303.9,391.06,304.4,390.62,304.69,389.59Z"/><path d="M312.2,390a2.23,2.23,0,0,0,0,.34c0,.53.48.62.88.62a2.31,2.31,0,0,0,.75-.12l-.29,2.19a3.91,3.91,0,0,1-1.37.19c-1.61,0-2.64-.79-2.64-2.26a3.38,3.38,0,0,1,.1-.81l1.53-7.25h-1.39l.46-2.16h1.51l.94-3.31h2.25l-.69,3.31H316l-.46,2.16h-1.84Z"/><path d="M317.44,380.76H320L317.44,393h-2.6Zm.93-4.3h2.55l-.58,2.79H317.8Z"/><path d="M326.27,385.44l1.34,7.56H325l-.86-5-1.47,1.8L322,393h-2.6L323,376.2h2.59l-2,9.31,3.55-4.75h3Z"/><path d="M340.79,389.78a15,15,0,0,0-.41,3.22H338a3.62,3.62,0,0,1,.07-1.25,3,3,0,0,1-2.52,1.49,2.27,2.27,0,0,1-2.49-2.5,7.82,7.82,0,0,1,.16-1.34l1.2-5.66c.48-2.29,1.64-3.22,3.15-3.22a2.36,2.36,0,0,1,2.3,1.37l1.23-5.69h2.59Zm-2.52-.52.93-4.4a3.57,3.57,0,0,0,.1-.81c0-.92-.5-1.28-1.18-1.28s-1,.58-1.2,1.35l-1.12,5.3a2.86,2.86,0,0,0-.08.63c0,.55.2.93.94.93S338,390.6,338.27,389.26Z"/><path d="M342.64,390.36h2.64l-.56,2.64h-2.64Z"/><path d="M351,389.93a5.81,5.81,0,0,1,.15-1.25l.31-1.46a4,4,0,0,1,2.42-3.22l0-.05a2.55,2.55,0,0,1-1.08-2.23,5.17,5.17,0,0,1,.14-1.18l.19-.93c.56-2.45,2-3.65,4.35-3.65,2.18,0,3.81,1.06,3.81,3.24a5.83,5.83,0,0,1-.14,1.25l-.19.93a3.8,3.8,0,0,1-2.33,3.07v.05a2.69,2.69,0,0,1,1.15,2.38,6.69,6.69,0,0,1-.12,1.13l-.33,1.51c-.56,2.47-2,3.72-4.42,3.72C352.67,393.24,351,392.16,351,389.93Zm5.76-.82.36-1.63a3.28,3.28,0,0,0,.08-.65,1.19,1.19,0,0,0-1.32-1.32c-.94,0-1.52.55-1.76,1.71l-.33,1.58a3.6,3.6,0,0,0-.07.7,1.24,1.24,0,0,0,1.41,1.34C355.93,390.84,356.48,390.26,356.72,389.11Zm1.49-7.46.34-1.54a2.18,2.18,0,0,0,.07-.55c0-.89-.6-1.2-1.37-1.2s-1.27.45-1.49,1.46l-.33,1.54a2.36,2.36,0,0,0-.07.55,1.13,1.13,0,0,0,1.24,1.25C357.47,383.16,358,382.66,358.21,381.65Z"/><path d="M360.78,390.36h2.64l-.55,2.64h-2.64Z"/><path d="M366.3,384.72h5.28l-.46,2.16h-5.28Z"/><path d="M375.88,380.18h-2.76l.21-1.87c2.23,0,3.22-.58,4.15-2.11h1.95L375.78,393h-2.71Z"/><path d="M378.42,389.85a6,6,0,0,1,.14-1.22l1.9-8.88c.53-2.47,2-3.79,4.22-3.79s3.89,1.15,3.89,3.38a6.22,6.22,0,0,1-.14,1.25l-1.9,8.88c-.53,2.47-2,3.77-4.22,3.77S378.42,392.09,378.42,389.85Zm5.45-.5,1.94-9.19a2.77,2.77,0,0,0,.07-.6c0-.82-.48-1.2-1.32-1.2s-1.2.38-1.44,1.51l-1.94,9.19a2.6,2.6,0,0,0-.07.58c0,.84.5,1.2,1.34,1.2C383.12,390.84,383.63,390.48,383.87,389.35Z"/><path d="M388.16,390.36h2.64l-.55,2.64h-2.64Z"/><path d="M394.43,394.51a1.56,1.56,0,0,0,.76.19c.41,0,.6-.19.7-.62l2.86-13.32h2.59l-2.95,13.82a2.58,2.58,0,0,1-2.67,2.38,3.58,3.58,0,0,1-1.73-.38Zm5.23-18.05h2.54l-.57,2.79h-2.55Z"/><path d="M410.7,380.76,408.13,393h-2.21l.22-1.27a3,3,0,0,1-2.55,1.51,2.22,2.22,0,0,1-2.44-2.45,5.89,5.89,0,0,1,.16-1.37l1.85-8.66h2.59l-1.82,8.52a3.15,3.15,0,0,0-.1.74.83.83,0,0,0,.94,1c.67,0,1.27-.48,1.54-1.7l1.8-8.52Z"/><path d="M419.53,383a6,6,0,0,1-.17,1.37L417.51,393h-2.59l1.83-8.52a3.08,3.08,0,0,0,.09-.74c0-.63-.29-1-.93-1s-1.23.46-1.52,1.54L412.57,393H410l2.57-12.24h2.2l-.21,1.27a3,3,0,0,1,2.54-1.51A2.23,2.23,0,0,1,419.53,383Z"/><path d="M422,380.76h2.6L422,393h-2.59Zm.94-4.3h2.54l-.57,2.79h-2.55Z"/><path d="M427.76,390.69a9,9,0,0,1,3.91-5.85c2.45-1.9,3.27-2.93,3.6-4.47a3.35,3.35,0,0,0,.1-.84c0-.88-.5-1.17-1.27-1.17s-1.25.45-1.49,1.49l-.41,2h-2.54l.43-2.07c.53-2.45,2-3.79,4.2-3.79,2.52,0,3.79,1.2,3.79,3.26a6.82,6.82,0,0,1-.17,1.35c-.43,2-1.6,3.81-4.58,6.09-1.92,1.47-2.52,2.24-2.76,3.39l-.12.55h5L435,393h-7.71Z"/><path d="M437.17,389.85a6,6,0,0,1,.14-1.22l1.9-8.88c.53-2.47,2-3.79,4.22-3.79s3.89,1.15,3.89,3.38a6.22,6.22,0,0,1-.14,1.25l-1.9,8.88c-.53,2.47-2,3.77-4.22,3.77S437.17,392.09,437.17,389.85Zm5.45-.5,1.94-9.19a2.77,2.77,0,0,0,.07-.6c0-.82-.48-1.2-1.32-1.2s-1.2.38-1.44,1.51l-1.94,9.19a2.6,2.6,0,0,0-.07.58c0,.84.5,1.2,1.34,1.2C441.87,390.84,442.38,390.48,442.62,389.35Z"/><path d="M446.26,390.69a9,9,0,0,1,3.92-5.85c2.44-1.9,3.26-2.93,3.6-4.47a3.82,3.82,0,0,0,.09-.84c0-.88-.5-1.17-1.27-1.17s-1.25.45-1.49,1.49l-.41,2h-2.54l.43-2.07c.53-2.45,2-3.79,4.2-3.79,2.52,0,3.8,1.2,3.8,3.26a7.66,7.66,0,0,1-.17,1.35c-.43,2-1.61,3.81-4.59,6.09-1.92,1.47-2.52,2.24-2.76,3.39l-.12.55h5l-.5,2.4h-7.71Z"/><path d="M455.29,390.69a9,9,0,0,1,3.91-5.85c2.45-1.9,3.26-2.93,3.6-4.47a3.89,3.89,0,0,0,.1-.84c0-.88-.51-1.17-1.28-1.17s-1.24.45-1.48,1.49l-.41,2h-2.55l.44-2.07c.52-2.45,2-3.79,4.2-3.79,2.52,0,3.79,1.2,3.79,3.26a6.82,6.82,0,0,1-.17,1.35c-.43,2-1.61,3.81-4.58,6.09-1.92,1.47-2.52,2.24-2.76,3.39l-.12.55h5l-.51,2.4h-7.7Z"/><path d="M464.84,390.36h2.64l-.55,2.64h-2.64Z"/></g></g></svg>