<svg id="Layer_1" data-name="Layer 1" xmlns="http://www.w3.org/2000/svg" width="640" height="640" viewBox="0 0 640 640"><defs><style>.cls-1{fill:#e8cdf8;}.cls-2{opacity:0.03;}.cls-3{isolation:isolate;}</style></defs><rect class="cls-1" width="640" height="640"/><g class="cls-2"><g class="cls-3"><path d="M22.75,0H6.15a11.4,11.4,0,0,1-5,1H0V13.51c4.18.1,6,1.29,6,5a23.94,23.94,0,0,1-.75,5.25l-3.38,16a39.8,39.8,0,0,0-1.12,8A27.51,27.51,0,0,0,1,51H14.62a14.35,14.35,0,0,1-.25-2.25,46.17,46.17,0,0,1,1.25-7.88L18.87,25.5a30.72,30.72,0,0,0,.88-7.25c0-5.5-2-9.38-6.38-10.88V7.25A14.42,14.42,0,0,0,22.75,0Z"/><path d="M89.35,0H64.81L62.37,11.62h5.12c4.75,0,6.88,1.75,6.88,6a24.72,24.72,0,0,1-.63,4.63L72,30.75c-1.5,7-4.37,9-8.12,9-4.25,0-6.75-1.75-6.75-6.13a14.08,14.08,0,0,1,.37-3.12L59,23.37H45.87L44.74,28.5A34.94,34.94,0,0,0,44,35.37c0,10.5,6.63,16.88,19.88,16.88,11.5,0,18.75-6.75,21.62-19.38l2.13-9.5a28.88,28.88,0,0,0,.62-5.5c0-5.75-2.5-10.25-7.5-12.62V5.12A15.32,15.32,0,0,0,89.35,0Z"/><path d="M116.75,0l-26,51H106L131.32,0Z"/><path d="M195.78,0,185,51h14L209.78,0Z"/><path d="M261,11.62,263.43,0H230.84L220,51h37.5l2.62-12.5H236.74l5.75-26.88Z"/><path d="M298.73,0l-1.62,22h-12l7.81-22H280.77L261.61,51h13.25l6-17.13h15.5L295.11,51h14l2.55-51Z"/><path d="M331.53,0,320.74,51h14L345.53,0Z"/><path d="M396.74,11.62,399.18,0H366.59L355.74,51h37.5l2.62-12.5H372.49l5.75-26.88Z"/><path d="M451,0h-16.6a11.4,11.4,0,0,1-5,1h-4.13l.22-1h-14L400.61,51h14l8-37.5h5c4.62,0,6.62,1.12,6.62,5a23.94,23.94,0,0,1-.75,5.25l-3.37,16a39.3,39.3,0,0,0-1.13,8,29.81,29.81,0,0,0,.25,3.25h13.63a13.25,13.25,0,0,1-.25-2.25,45.19,45.19,0,0,1,1.25-7.88l3.25-15.37a31.2,31.2,0,0,0,.87-7.25c0-5.5-2-9.38-6.37-10.88V7.25A14.45,14.45,0,0,0,451,0Z"/><path d="M517.59,0H493.05l-2.44,11.62h5.12c4.75,0,6.88,1.75,6.88,6a24.72,24.72,0,0,1-.63,4.63l-1.75,8.5c-1.5,7-4.37,9-8.12,9-4.25,0-6.75-1.75-6.75-6.13a14.08,14.08,0,0,1,.37-3.12l1.5-7.13H474.11L473,28.5a34.94,34.94,0,0,0-.75,6.87c0,10.5,6.63,16.88,19.88,16.88,11.5,0,18.75-6.75,21.62-19.38l2.13-9.5a28.88,28.88,0,0,0,.62-5.5c0-5.75-2.5-10.25-7.5-12.62V5.12A15.32,15.32,0,0,0,517.59,0Z"/><path d="M545,0,519,51h15.25L559.56,0Z"/><path d="M624,0,613.23,51h14L638,0Z"/></g><g class="cls-3"><path d="M0,88.5v16L.75,101H15.12l2.75-12.5Z"/><path d="M24.5,88.5H62L59.25,101H35.87L31,124.12H49.5l-2.63,12.5H28.37L22.62,163.5H46L43.37,176H5.87Z"/><path d="M99.37,88.5,95,176H81l1.25-17.13H66.75l-6,17.13H47.5L80.37,88.5ZM83,147l3.12-42.63L71,147Z"/><path d="M122.5,101H108.12l2.75-12.5h42.75L150.87,101H136.5l-15.88,75h-14Z"/><path d="M160.25,88.5h37.5L195,101H171.62l-4.87,23.12h18.5l-2.63,12.5h-18.5l-5.75,26.88h23.38L179.12,176h-37.5Z"/><path d="M205.12,88.5h20.13c10.62,0,16.87,5,16.87,15a33.8,33.8,0,0,1-.75,6.75l-.87,4.25c-2.13,10.25-5.75,15.87-13,17.75v.12c4.37,1.5,6.37,5.38,6.37,10.88a31.2,31.2,0,0,1-.87,7.25l-3.25,15.37a45.19,45.19,0,0,0-1.25,7.88,13.25,13.25,0,0,0,.25,2.25H215.12a29.81,29.81,0,0,1-.25-3.25,39.3,39.3,0,0,1,1.13-8l3.37-16a23.94,23.94,0,0,0,.75-5.25c0-3.88-2-5-6.62-5h-5l-8,37.5h-14ZM215.25,126c5.12,0,9-2.13,10.75-9.75l1.5-6.75a17.69,17.69,0,0,0,.5-4c0-3.25-1.63-4.5-5.25-4.5H216.5l-5.38,25Z"/><path d="M258.12,160.37a34.94,34.94,0,0,1,.75-6.87l1.12-5.13h13.13l-1.5,7.13a14.12,14.12,0,0,0-.38,3.12c0,4.38,2.5,6.13,6.75,6.13,3.75,0,6.63-2,8.13-9l1.75-8.5a25.45,25.45,0,0,0,.62-4.63c0-4.25-2.12-6-6.87-6h-5.13l2.63-12.5h4.5c5.12,0,9.25-2.25,10.87-9.75l1.13-5.25A14.08,14.08,0,0,0,296,106c0-4.38-2.5-6.25-6.25-6.25s-6.25,2.12-7.37,7.37l-1.5,6.5H267.74l1.5-6.87c2.75-12.63,10.13-19.5,21.38-19.5,11.62,0,19.5,5.5,19.5,16.62a28.7,28.7,0,0,1-.88,7l-.37,1.63c-2.25,9.87-6,15.75-14,17.62v.13c5,2.37,7.5,6.87,7.5,12.62a28.13,28.13,0,0,1-.63,5.5l-2.12,9.5c-2.88,12.63-10.13,19.38-21.63,19.38C264.74,177.25,258.12,170.87,258.12,160.37Z"/><path d="M343.12,101h-27l2.75-12.5h41.25l-2.5,12L320.12,176H304.87Z"/><path d="M415,101H400.61l2.75-12.5h42.75L443.36,101H429l-15.88,75h-14Z"/><path d="M452.74,88.5h37.5L487.49,101H464.11l-4.87,23.12h18.5l-2.63,12.5h-18.5l-5.75,26.88h23.38L471.61,176h-37.5Z"/><path d="M527.61,88.5,523.24,176h-14l1.25-17.13H495L489,176H475.74l32.87-87.5ZM511.24,147l3.12-42.63L499.24,147Z"/><path d="M550.74,101H536.36l2.75-12.5h42.75L579.11,101H564.74l-15.88,75h-14Z"/><path d="M588.49,88.5H626L623.24,101H599.86L595,124.12h18.5l-2.63,12.5h-18.5l-5.75,26.88H610L607.36,176h-37.5Z"/><path d="M640,88.5h-6.64L614.73,176h14l8-37.5H640V126h-.64l.64-3Z"/></g><g class="cls-3"><path d="M11.12,213.5H0V237l2.37-11H8.62c3.63,0,5.25,1.25,5.25,4.5a17.14,17.14,0,0,1-.5,4l-1.5,6.75C10.12,248.87,6.25,251,1.12,251H0v12.51c4.18.1,6,1.29,6,5a23.94,23.94,0,0,1-.75,5.25l-3.38,16a39.8,39.8,0,0,0-1.12,8A27.51,27.51,0,0,0,1,301H14.62a14.35,14.35,0,0,1-.25-2.25,46.17,46.17,0,0,1,1.25-7.88l3.25-15.37a30.72,30.72,0,0,0,.88-7.25c0-5.5-2-9.38-6.38-10.88v-.12c7.25-1.88,10.88-7.5,13-17.75l.88-4.25A33.8,33.8,0,0,0,28,228.5C28,218.5,21.75,213.5,11.12,213.5Z"/><path d="M44,285.37a34.94,34.94,0,0,1,.75-6.87l1.13-5.13H59l-1.5,7.13a14.08,14.08,0,0,0-.37,3.12c0,4.38,2.5,6.13,6.75,6.13,3.75,0,6.62-2,8.12-9l1.75-8.5a24.72,24.72,0,0,0,.63-4.63c0-4.25-2.13-6-6.88-6H62.37L65,249.12h4.5c5.13,0,9.25-2.25,10.88-9.75l1.12-5.25a14.12,14.12,0,0,0,.38-3.12c0-4.38-2.5-6.25-6.25-6.25s-6.25,2.12-7.38,7.37l-1.5,6.5H53.62l1.5-6.87c2.75-12.63,10.12-19.5,21.37-19.5,11.63,0,19.5,5.5,19.5,16.62a29.16,29.16,0,0,1-.87,7l-.38,1.63c-2.25,9.87-6,15.75-14,17.62v.13c5,2.37,7.5,6.87,7.5,12.62a28.88,28.88,0,0,1-.62,5.5l-2.13,9.5c-2.87,12.63-10.12,19.38-21.62,19.38C50.62,302.25,44,295.87,44,285.37Z"/><path d="M129,226H102l2.75-12.5H146l-2.5,12L106,301H90.74Z"/><path d="M200.86,226H186.49l2.75-12.5H232L229.24,226H214.86L199,301H185Z"/><path d="M238.61,213.5h37.5L273.36,226H250l-4.88,23.12h18.5L261,261.62h-18.5l-5.75,26.88h23.37L257.49,301H220Z"/><path d="M313.49,213.5,309.11,301h-14l1.25-17.13h-15.5l-6,17.13H261.61l32.88-87.5ZM297.11,272l3.13-42.63L285.11,272Z"/><path d="M336.61,226H322.24L325,213.5h42.75L365,226H350.61l-15.87,75h-14Z"/><path d="M374.36,213.5h37.5L409.11,226H385.74l-4.88,23.12h18.5l-2.62,12.5h-18.5l-5.75,26.88h23.37L393.24,301h-37.5Z"/><path d="M419.23,213.5h20.13c10.62,0,16.87,5,16.87,15a33.8,33.8,0,0,1-.75,6.75l-.87,4.25c-2.13,10.25-5.75,15.87-13,17.75v.12c4.37,1.5,6.37,5.38,6.37,10.88a31.2,31.2,0,0,1-.87,7.25l-3.25,15.37a45.19,45.19,0,0,0-1.25,7.88,13.25,13.25,0,0,0,.25,2.25H429.23a29.81,29.81,0,0,1-.25-3.25,39.3,39.3,0,0,1,1.13-8l3.37-16a23.94,23.94,0,0,0,.75-5.25c0-3.88-2-5-6.62-5h-5l-8,37.5h-14ZM429.36,251c5.12,0,9-2.13,10.75-9.75l1.5-6.75a17.69,17.69,0,0,0,.5-4c0-3.25-1.63-4.5-5.25-4.5h-6.25l-5.38,25Z"/><path d="M472.23,285.37a34.94,34.94,0,0,1,.75-6.87l1.13-5.13h13.12l-1.5,7.13a14.08,14.08,0,0,0-.37,3.12c0,4.38,2.5,6.13,6.75,6.13,3.75,0,6.62-2,8.12-9l1.75-8.5a24.72,24.72,0,0,0,.63-4.63c0-4.25-2.13-6-6.88-6h-5.12l2.62-12.5h4.5c5.13,0,9.25-2.25,10.88-9.75l1.12-5.25a14.12,14.12,0,0,0,.38-3.12c0-4.38-2.5-6.25-6.25-6.25s-6.25,2.12-7.38,7.37l-1.5,6.5H481.86l1.5-6.87c2.75-12.63,10.12-19.5,21.37-19.5,11.63,0,19.5,5.5,19.5,16.62a29.16,29.16,0,0,1-.87,7L523,237.5c-2.25,9.87-6,15.75-14,17.62v.13c5,2.37,7.5,6.87,7.5,12.62a28.88,28.88,0,0,1-.62,5.5l-2.13,9.5c-2.87,12.63-10.12,19.38-21.62,19.38C478.86,302.25,472.23,295.87,472.23,285.37Z"/><path d="M557.23,226h-27L533,213.5h41.25l-2.5,12L534.23,301H519Z"/><path d="M617.48,213.5,614.73,226H629.1l-15.87,75h14L640,240.65V213.5Z"/></g><g class="cls-3"><path d="M0,338.5v16L.75,351H15.12l2.75-12.5Z"/><path d="M24.5,338.5H62L59.25,351H35.87L31,374.12H49.5l-2.63,12.5H28.37L22.62,413.5H46L43.37,426H5.87Z"/><path d="M99.37,338.5,95,426H81l1.25-17.13H66.75l-6,17.13H47.5l32.87-87.5ZM83,397l3.12-42.63L71,397Z"/><path d="M122.5,351H108.12l2.75-12.5h42.75L150.87,351H136.5l-15.88,75h-14Z"/><path d="M160.25,338.5h37.5L195,351H171.62l-4.87,23.12h18.5l-2.63,12.5h-18.5l-5.75,26.88h23.38L179.12,426h-37.5Z"/><path d="M205.12,338.5h20.13c10.62,0,16.87,5,16.87,15a33.8,33.8,0,0,1-.75,6.75l-.87,4.25c-2.13,10.25-5.75,15.87-13,17.75v.12c4.37,1.5,6.37,5.38,6.37,10.88a31.2,31.2,0,0,1-.87,7.25l-3.25,15.37a45.19,45.19,0,0,0-1.25,7.88,13.25,13.25,0,0,0,.25,2.25H215.12a29.81,29.81,0,0,1-.25-3.25,39.3,39.3,0,0,1,1.13-8l3.37-16a23.94,23.94,0,0,0,.75-5.25c0-3.88-2-5-6.62-5h-5l-8,37.5h-14ZM215.25,376c5.12,0,9-2.13,10.75-9.75l1.5-6.75a17.69,17.69,0,0,0,.5-4c0-3.25-1.63-4.5-5.25-4.5H216.5l-5.38,25Z"/><path d="M258.12,410.37a34.94,34.94,0,0,1,.75-6.87l1.12-5.13h13.13l-1.5,7.13a14.12,14.12,0,0,0-.38,3.12c0,4.38,2.5,6.13,6.75,6.13,3.75,0,6.63-2,8.13-9l1.75-8.5a25.45,25.45,0,0,0,.62-4.63c0-4.25-2.12-6-6.87-6h-5.13l2.63-12.5h4.5c5.12,0,9.25-2.25,10.87-9.75l1.13-5.25A14.08,14.08,0,0,0,296,356c0-4.38-2.5-6.25-6.25-6.25s-6.25,2.12-7.37,7.37l-1.5,6.5H267.74l1.5-6.87c2.75-12.63,10.13-19.5,21.38-19.5,11.62,0,19.5,5.5,19.5,16.62a28.7,28.7,0,0,1-.88,7l-.37,1.63c-2.25,9.87-6,15.75-14,17.62v.13c5,2.37,7.5,6.87,7.5,12.62a28.13,28.13,0,0,1-.63,5.5l-2.12,9.5c-2.88,12.63-10.13,19.38-21.63,19.38C264.74,427.25,258.12,420.87,258.12,410.37Z"/><path d="M343.12,351h-27l2.75-12.5h41.25l-2.5,12L320.12,426H304.87Z"/><path d="M415,351H400.61l2.75-12.5h42.75L443.36,351H429l-15.88,75h-14Z"/><path d="M452.74,338.5h37.5L487.49,351H464.11l-4.87,23.12h18.5l-2.63,12.5h-18.5l-5.75,26.88h23.38L471.61,426h-37.5Z"/><path d="M527.61,338.5,523.24,426h-14l1.25-17.13H495L489,426H475.74l32.87-87.5ZM511.24,397l3.12-42.63L499.24,397Z"/><path d="M550.74,351H536.36l2.75-12.5h42.75L579.11,351H564.74l-15.88,75h-14Z"/><path d="M588.49,338.5H626L623.24,351H599.86L595,374.12h18.5l-2.63,12.5h-18.5l-5.75,26.88H610L607.36,426h-37.5Z"/><path d="M640,338.5h-6.64L614.73,426h14l8-37.5H640V376h-.64l.64-3Z"/></g><g class="cls-3"><path d="M11.12,463.5H0V487l2.37-11H8.62c3.63,0,5.25,1.25,5.25,4.5a17.14,17.14,0,0,1-.5,4l-1.5,6.75C10.12,498.87,6.25,501,1.12,501H0v12.51c4.18.1,6,1.29,6,5a23.94,23.94,0,0,1-.75,5.25l-3.38,16a39.8,39.8,0,0,0-1.12,8A27.51,27.51,0,0,0,1,551H14.62a14.35,14.35,0,0,1-.25-2.25,46.17,46.17,0,0,1,1.25-7.88l3.25-15.37a30.72,30.72,0,0,0,.88-7.25c0-5.5-2-9.38-6.38-10.88v-.12c7.25-1.88,10.88-7.5,13-17.75l.88-4.25A33.8,33.8,0,0,0,28,478.5C28,468.5,21.75,463.5,11.12,463.5Z"/><path d="M44,535.37a34.94,34.94,0,0,1,.75-6.87l1.13-5.13H59l-1.5,7.13a14.08,14.08,0,0,0-.37,3.12c0,4.38,2.5,6.13,6.75,6.13,3.75,0,6.62-2,8.12-9l1.75-8.5a24.72,24.72,0,0,0,.63-4.63c0-4.25-2.13-6-6.88-6H62.37L65,499.12h4.5c5.13,0,9.25-2.25,10.88-9.75l1.12-5.25a14.12,14.12,0,0,0,.38-3.12c0-4.38-2.5-6.25-6.25-6.25s-6.25,2.12-7.38,7.37l-1.5,6.5H53.62l1.5-6.87c2.75-12.63,10.12-19.5,21.37-19.5,11.63,0,19.5,5.5,19.5,16.62a29.16,29.16,0,0,1-.87,7l-.38,1.63c-2.25,9.87-6,15.75-14,17.62v.13c5,2.37,7.5,6.87,7.5,12.62a28.88,28.88,0,0,1-.62,5.5l-2.13,9.5c-2.87,12.63-10.12,19.38-21.62,19.38C50.62,552.25,44,545.87,44,535.37Z"/><path d="M129,476H102l2.75-12.5H146l-2.5,12L106,551H90.74Z"/><path d="M200.86,476H186.49l2.75-12.5H232L229.24,476H214.86L199,551H185Z"/><path d="M238.61,463.5h37.5L273.36,476H250l-4.88,23.12h18.5L261,511.62h-18.5l-5.75,26.88h23.37L257.49,551H220Z"/><path d="M313.49,463.5,309.11,551h-14l1.25-17.13h-15.5l-6,17.13H261.61l32.88-87.5ZM297.11,522l3.13-42.63L285.11,522Z"/><path d="M336.61,476H322.24L325,463.5h42.75L365,476H350.61l-15.87,75h-14Z"/><path d="M374.36,463.5h37.5L409.11,476H385.74l-4.88,23.12h18.5l-2.62,12.5h-18.5l-5.75,26.88h23.37L393.24,551h-37.5Z"/><path d="M419.23,463.5h20.13c10.62,0,16.87,5,16.87,15a33.8,33.8,0,0,1-.75,6.75l-.87,4.25c-2.13,10.25-5.75,15.87-13,17.75v.12c4.37,1.5,6.37,5.38,6.37,10.88a31.2,31.2,0,0,1-.87,7.25l-3.25,15.37a45.19,45.19,0,0,0-1.25,7.88,13.25,13.25,0,0,0,.25,2.25H429.23a29.81,29.81,0,0,1-.25-3.25,39.3,39.3,0,0,1,1.13-8l3.37-16a23.94,23.94,0,0,0,.75-5.25c0-3.88-2-5-6.62-5h-5l-8,37.5h-14ZM429.36,501c5.12,0,9-2.13,10.75-9.75l1.5-6.75a17.69,17.69,0,0,0,.5-4c0-3.25-1.63-4.5-5.25-4.5h-6.25l-5.38,25Z"/><path d="M472.23,535.37a34.94,34.94,0,0,1,.75-6.87l1.13-5.13h13.12l-1.5,7.13a14.08,14.08,0,0,0-.37,3.12c0,4.38,2.5,6.13,6.75,6.13,3.75,0,6.62-2,8.12-9l1.75-8.5a24.72,24.72,0,0,0,.63-4.63c0-4.25-2.13-6-6.88-6h-5.12l2.62-12.5h4.5c5.13,0,9.25-2.25,10.88-9.75l1.12-5.25a14.12,14.12,0,0,0,.38-3.12c0-4.38-2.5-6.25-6.25-6.25s-6.25,2.12-7.38,7.37l-1.5,6.5H481.86l1.5-6.87c2.75-12.63,10.12-19.5,21.37-19.5,11.63,0,19.5,5.5,19.5,16.62a29.16,29.16,0,0,1-.87,7L523,487.5c-2.25,9.87-6,15.75-14,17.62v.13c5,2.37,7.5,6.87,7.5,12.62a28.88,28.88,0,0,1-.62,5.5l-2.13,9.5c-2.87,12.63-10.12,19.38-21.62,19.38C478.86,552.25,472.23,545.87,472.23,535.37Z"/><path d="M557.23,476h-27L533,463.5h41.25l-2.5,12L534.23,551H519Z"/><path d="M617.48,463.5,614.73,476H629.1l-15.87,75h14L640,490.65V463.5Z"/></g><g class="cls-3"><path d="M0,588.5v16L.75,601H15.12l2.75-12.5Z"/><path d="M59.25,601,62,588.5H24.5l-11,51.5H27.65l.72-3.38h18.5l2.63-12.5H31L35.87,601Z"/><path d="M80.37,588.5,61,640H73.48l12.64-35.63L83.51,640H96.8l2.57-51.5Z"/><path d="M110.87,588.5,108.12,601H122.5l-8.26,39h14l8.26-39h14.37l2.75-12.5Z"/><path d="M195,601l2.75-12.5h-37.5l-11,51.5H163.4l.72-3.38h18.5l2.63-12.5h-18.5L171.62,601Z"/><path d="M225.25,588.5H205.12l-11,51.5h14l.32-1.5h5c2.71,0,4.52.39,5.55,1.5H233.6c-.68-3.78-2.65-6.45-6.1-7.63v-.12c7.25-1.88,10.87-7.5,13-17.75l.87-4.25a33.8,33.8,0,0,0,.75-6.75C242.12,593.5,235.87,588.5,225.25,588.5Zm2.25,21-1.5,6.75c-1.75,7.62-5.63,9.75-10.75,9.75h-4.13l5.38-25h6.25c3.62,0,5.25,1.25,5.25,4.5A17.69,17.69,0,0,1,227.5,609.5Z"/><path d="M290.62,587.25c-11.25,0-18.63,6.87-21.38,19.5l-1.5,6.87h13.13l1.5-6.5c1.12-5.25,3.75-7.37,7.37-7.37S296,601.62,296,606a14.08,14.08,0,0,1-.37,3.12l-1.13,5.25c-1.62,7.5-5.75,9.75-10.87,9.75h-4.5l-2.63,12.5h5.13c3.62,0,5.71,1,6.49,3.38h14a12.57,12.57,0,0,0-7.27-9.75v-.13c8-1.87,11.75-7.75,14-17.62l.37-1.63a28.7,28.7,0,0,0,.88-7C310.12,592.75,302.24,587.25,290.62,587.25Z"/><path d="M318.87,588.5,316.12,601h27l-19.89,39H338l19.62-39.5,2.5-12Z"/><path d="M403.36,588.5,400.61,601H415l-8.26,39h14L429,601h14.37l2.75-12.5Z"/><path d="M487.49,601l2.75-12.5h-37.5l-11,51.5h14.12l.72-3.38h18.5l2.63-12.5h-18.5L464.11,601Z"/><path d="M508.61,588.5,489.26,640h12.46l12.64-35.63L511.75,640H525l2.57-51.5Z"/><path d="M539.11,588.5,536.36,601h14.38l-8.26,39h14l8.26-39h14.37l2.75-12.5Z"/><path d="M623.24,601,626,588.5h-37.5l-11,51.5h14.12l.72-3.38h18.5l2.63-12.5H595L599.86,601Z"/><path d="M640,588.5h-6.64l-11,51.5h14l.32-1.5H640V626h-.64l.64-3Z"/></g></g><g class="cls-3"><path d="M183.71,246l2.56,28h-7.1l-1.73-19.26-4.29,5.95L170.34,274h-7.17l9.53-44.8h7.17L176,247.57l12.16-18.37h7.68Z"/><path d="M199.2,229.2h7.17L196.83,274h-7.17Z"/><path d="M211.61,229.2h8.51L221.53,256l5.76-26.82h6.4L224.16,274h-6.91l-1.8-32.7-7,32.7h-6.4Z"/><path d="M250,246l2.56,28H245.4l-1.72-19.26-4.29,5.95L236.57,274h-7.16l9.53-44.8h7.17l-3.91,18.37,12.16-18.37H262Z"/><path d="M266.4,254.93l-3-25.73h7.17l1.21,16.71,8.51-16.71h7.3l-14,25.73L269.47,274H262.3Z"/><path d="M292.83,265.94a16.51,16.51,0,0,1,.38-3.33l5.19-24.19c1.34-6.27,5.18-9.86,11-9.86,6.66,0,10,3.27,10,8.64a16.06,16.06,0,0,1-.39,3.4l-.77,3.71h-6.78l1-4.87a6.09,6.09,0,0,0,.2-1.47c0-2.05-1.35-3-3.4-3-1.85,0-3.2,1.16-3.77,3.78l-5.38,25a6.62,6.62,0,0,0-.19,1.41c0,2.18,1.41,3.07,3.39,3.07s3.39-1.09,3.91-3.65l1.4-7h6.72l-1.47,7.17c-1.34,6.46-5.12,9.85-10.94,9.85C296.22,274.64,292.83,271.38,292.83,265.94Z"/><path d="M325.4,229.2h7.17l-8.19,38.4h11.45l-1.34,6.4H315.87Z"/><path d="M362.78,229.2,360.54,274h-7.17l.64-8.77h-7.94L343,274h-6.78l16.83-44.8Zm-8.39,29.95,1.6-21.82-7.74,21.82Z"/><path d="M364.31,266.32a18.43,18.43,0,0,1,.45-4l.32-1.53h6.72l-.51,2.75a8.77,8.77,0,0,0-.19,1.73c0,2.3,1.28,2.94,3.33,2.94,3.39,0,4.35-3.14,4.35-6.27,0-2.75-1.15-5.31-3.91-8.51-3.58-4-5.31-8-5.31-12,0-7.36,4.35-12.87,11.71-12.87,6.34,0,9.6,2.88,9.6,8.26a19.31,19.31,0,0,1-.51,4l-.19.83h-6.72l.38-1.92a10.55,10.55,0,0,0,.19-1.92c0-2.17-1.15-2.88-3.19-2.88-3.14,0-4.16,2.95-4.16,5.83,0,2.56,1.15,5.12,3.9,8.32,3.52,4.16,5.31,8,5.31,12.28,0,7.62-4.29,13.25-11.9,13.25C367.45,274.64,364.31,271.82,364.31,266.32Z"/><path d="M388,266.32a18.43,18.43,0,0,1,.45-4l.32-1.53h6.72l-.51,2.75a8.77,8.77,0,0,0-.19,1.73c0,2.3,1.28,2.94,3.33,2.94,3.39,0,4.35-3.14,4.35-6.27,0-2.75-1.15-5.31-3.91-8.51-3.58-4-5.31-8-5.31-12,0-7.36,4.35-12.87,11.71-12.87,6.34,0,9.6,2.88,9.6,8.26a19.31,19.31,0,0,1-.51,4l-.19.83h-6.72l.38-1.92a10.55,10.55,0,0,0,.19-1.92c0-2.17-1.15-2.88-3.19-2.88-3.14,0-4.16,2.95-4.16,5.83,0,2.56,1.15,5.12,3.9,8.32,3.52,4.16,5.31,8,5.31,12.28,0,7.62-4.29,13.25-11.9,13.25C391.13,274.64,388,271.82,388,266.32Z"/><path d="M420.63,229.2h7.17L418.27,274H411.1Z"/><path d="M424.86,265.94a15.82,15.82,0,0,1,.38-3.33l5.18-24.19c1.35-6.27,5.19-9.86,11-9.86,6.66,0,10,3.27,10,8.64a16,16,0,0,1-.38,3.4l-.77,3.71h-6.78l1-4.87a6.05,6.05,0,0,0,.19-1.47c0-2.05-1.34-3-3.39-3-1.85,0-3.2,1.16-3.77,3.78l-5.38,25a6,6,0,0,0-.19,1.41c0,2.18,1.41,3.07,3.39,3.07s3.39-1.09,3.91-3.65l1.4-7h6.72l-1.47,7.17c-1.34,6.46-5.12,9.85-10.94,9.85C428.25,274.64,424.86,271.38,424.86,265.94Z"/><path d="M448.6,266.32a18.43,18.43,0,0,1,.45-4l.32-1.53h6.72l-.51,2.75a8.84,8.84,0,0,0-.2,1.73c0,2.3,1.28,2.94,3.33,2.94,3.39,0,4.35-3.14,4.35-6.27,0-2.75-1.15-5.31-3.9-8.51-3.58-4-5.31-8-5.31-12,0-7.36,4.35-12.87,11.71-12.87,6.33,0,9.6,2.88,9.6,8.26a19.31,19.31,0,0,1-.51,4l-.2.83h-6.72l.39-1.92a10.55,10.55,0,0,0,.19-1.92c0-2.17-1.15-2.88-3.2-2.88-3.13,0-4.16,2.95-4.16,5.83,0,2.56,1.15,5.12,3.9,8.32,3.52,4.16,5.32,8,5.32,12.28,0,7.62-4.29,13.25-11.91,13.25C451.74,274.64,448.6,271.82,448.6,266.32Z"/></g><g class="cls-3"><path d="M166.26,318.2H169L165.38,335h-2.69Z"/><path d="M178.89,324.51l1,10.49h-2.67l-.64-7.22L174.93,330l-1.06,5h-2.69l3.58-16.8h2.69L176,325.09l4.56-6.89h2.88Z"/><path d="M184.69,318.2h2.69L183.81,335h-2.69Z"/><path d="M189.35,318.2h3.19l.53,10.06,2.16-10.06h2.4L194.06,335h-2.6l-.67-12.26L188.18,335h-2.41Z"/><path d="M203.73,324.51l1,10.49H202l-.65-7.22-1.6,2.23-1.06,5H196l3.58-16.8h2.69l-1.47,6.89,4.56-6.89h2.88Z"/><path d="M209.89,327.85l-1.12-9.65h2.68l.46,6.26,3.19-6.26h2.74l-5.26,9.65L211.05,335h-2.69Z"/><path d="M219.81,332a5.7,5.7,0,0,1,.14-1.25l1.94-9.07c.51-2.36,2-3.7,4.13-3.7,2.5,0,3.75,1.22,3.75,3.24a5.84,5.84,0,0,1-.15,1.27l-.29,1.39h-2.54l.38-1.82a2.22,2.22,0,0,0,.08-.55c0-.77-.51-1.13-1.28-1.13s-1.2.43-1.41,1.41l-2,9.39a2.15,2.15,0,0,0-.07.53c0,.81.53,1.15,1.27,1.15a1.47,1.47,0,0,0,1.47-1.37l.52-2.61h2.52l-.55,2.68c-.5,2.43-1.92,3.7-4.1,3.7C221.08,335.24,219.81,334,219.81,332Z"/><path d="M232,318.2h2.69l-3.07,14.4h4.3l-.51,2.4h-7Z"/><path d="M246,318.2,245.2,335h-2.69l.24-3.29h-3L238.62,335h-2.54l6.31-16.8Zm-3.15,11.23.6-8.18-2.9,8.18Z"/><path d="M246.61,332.12a6.88,6.88,0,0,1,.17-1.49l.12-.57h2.52l-.19,1a3.14,3.14,0,0,0-.07.65c0,.86.48,1.1,1.25,1.1,1.27,0,1.63-1.18,1.63-2.35a4.8,4.8,0,0,0-1.47-3.19,6.82,6.82,0,0,1-2-4.52c0-2.76,1.63-4.82,4.39-4.82,2.38,0,3.6,1.08,3.6,3.1a7.24,7.24,0,0,1-.19,1.51l-.07.31h-2.52l.14-.72a4,4,0,0,0,.08-.72c0-.82-.44-1.08-1.2-1.08-1.18,0-1.56,1.1-1.56,2.18a4.82,4.82,0,0,0,1.46,3.12,7,7,0,0,1,2,4.61c0,2.86-1.61,5-4.46,5C247.79,335.24,246.61,334.18,246.61,332.12Z"/><path d="M255.49,332.12a6.88,6.88,0,0,1,.17-1.49l.12-.57h2.52l-.19,1a3.14,3.14,0,0,0-.07.65c0,.86.48,1.1,1.25,1.1,1.27,0,1.63-1.18,1.63-2.35a4.8,4.8,0,0,0-1.47-3.19,6.82,6.82,0,0,1-2-4.52c0-2.76,1.63-4.82,4.39-4.82,2.38,0,3.6,1.08,3.6,3.1a7.24,7.24,0,0,1-.19,1.51l-.07.31h-2.52l.14-.72a4,4,0,0,0,.08-.72c0-.82-.44-1.08-1.2-1.08-1.18,0-1.56,1.1-1.56,2.18a4.82,4.82,0,0,0,1.46,3.12,7,7,0,0,1,2,4.61c0,2.86-1.61,5-4.46,5C256.67,335.24,255.49,334.18,255.49,332.12Z"/><path d="M267.73,318.2h2.69L266.85,335h-2.69Z"/><path d="M269.32,332a5.7,5.7,0,0,1,.14-1.25l1.94-9.07c.51-2.36,2-3.7,4.13-3.7,2.5,0,3.75,1.22,3.75,3.24a5.84,5.84,0,0,1-.15,1.27l-.28,1.39H276.3l.39-1.82a2.76,2.76,0,0,0,.07-.55c0-.77-.51-1.13-1.28-1.13s-1.2.43-1.41,1.41l-2,9.39a2.76,2.76,0,0,0-.07.53c0,.81.53,1.15,1.27,1.15a1.47,1.47,0,0,0,1.47-1.37l.53-2.61h2.52l-.56,2.68c-.5,2.43-1.92,3.7-4.1,3.7C270.59,335.24,269.32,334,269.32,332Z"/><path d="M278.22,332.12a6.88,6.88,0,0,1,.17-1.49l.12-.57H281l-.19,1a3.14,3.14,0,0,0-.07.65c0,.86.47,1.1,1.24,1.1,1.27,0,1.64-1.18,1.64-2.35a4.85,4.85,0,0,0-1.47-3.19,6.82,6.82,0,0,1-2-4.52c0-2.76,1.63-4.82,4.39-4.82,2.38,0,3.6,1.08,3.6,3.1a7.24,7.24,0,0,1-.19,1.51l-.07.31H285.4l.14-.72a3.88,3.88,0,0,0,.07-.72c0-.82-.43-1.08-1.2-1.08-1.17,0-1.56,1.1-1.56,2.18a4.79,4.79,0,0,0,1.47,3.12,7,7,0,0,1,2,4.61c0,2.86-1.61,5-4.46,5C279.4,335.24,278.22,334.18,278.22,332.12Z"/><path d="M291.13,332.17a5.39,5.39,0,0,1,.15-1.2l1.05-5c.48-2.23,1.85-3.5,3.91-3.5s3.53,1,3.53,3.05a6,6,0,0,1-.14,1.22l-.1.41h-2.47l.19-.91a2.43,2.43,0,0,0,.07-.55c0-.68-.4-1-1.1-1s-1.13.43-1.3,1.27l-1.15,5.42a2.6,2.6,0,0,0-.07.58c0,.65.41.93,1.08.93s1.13-.43,1.3-1.27l.14-.67h2.5l-.15.7c-.45,2.16-1.75,3.5-3.84,3.5S291.13,334.23,291.13,332.17Z"/><path d="M303,318.2h2.59L302,335h-2.59Z"/><path d="M313,325.42a7,7,0,0,1-.17,1.49l-1,4.87a15,15,0,0,0-.41,3.22H309a4.79,4.79,0,0,1,.08-1.18,2.92,2.92,0,0,1-2.52,1.42,2.38,2.38,0,0,1-2.5-2.62c0-2.49,1.54-3.74,3.89-4.58,1.92-.67,2.21-.86,2.35-1.51v0l.07-.36a2.52,2.52,0,0,0,.07-.57c0-.63-.33-.92-1-.92s-1.08.46-1.25,1.3l-.12.58h-2.45l.17-.7c.5-2.14,1.75-3.36,3.77-3.36S313,323.41,313,325.42Zm-3.75,6.17.53-2.52a6.15,6.15,0,0,1-1.44.77,2.42,2.42,0,0,0-1.58,2.23.91.91,0,0,0,1,1C308.41,333.06,308.92,332.62,309.2,331.59Z"/><path d="M313.07,332.36a5.14,5.14,0,0,1,.12-1.06l.05-.19h2.47l-.1.41a2.6,2.6,0,0,0-.07.58.87.87,0,0,0,1,1,1.35,1.35,0,0,0,1.32-1.44c0-.82-.65-1.35-1.39-1.9a3.78,3.78,0,0,1-2-3.29,3.73,3.73,0,0,1,3.89-3.91c1.77,0,3.09.94,3.09,2.76a5.67,5.67,0,0,1-.12,1.08h-2.4a5.51,5.51,0,0,0,.1-.82.75.75,0,0,0-.84-.81,1.23,1.23,0,0,0-1.2,1.34c0,.84.67,1.39,1.46,1.95a3.72,3.72,0,0,1,2,3.24,3.89,3.89,0,0,1-4.1,4C314.39,335.24,313.07,334.21,313.07,332.36Z"/><path d="M330.61,325a6,6,0,0,1-.17,1.37L328.6,335H326l1.83-8.52a3.08,3.08,0,0,0,.09-.74c0-.63-.28-1-.93-1s-1.25.45-1.51,1.6L323.65,335h-2.54l3.55-16.8h2.54l-1.1,5.23a2.79,2.79,0,0,1,2.06-.91A2.22,2.22,0,0,1,330.61,325Z"/><path d="M339.66,325.69a6,6,0,0,1-.14,1.2l-.53,2.54h-5.07l-.4,1.9a3,3,0,0,0-.08.62c0,.7.41,1,1.25,1,.67,0,1.13-.43,1.34-1.39l.13-.55h2.47l-.12.58c-.48,2.32-1.87,3.62-4,3.62-2.4,0-3.68-1.2-3.68-3.17a5.89,5.89,0,0,1,.15-1.25l1-4.72c.48-2.28,1.87-3.58,4-3.58S339.66,323.58,339.66,325.69Zm-5.31,1.73h2.5l.22-1a3.17,3.17,0,0,0,.07-.55c0-.74-.43-1.05-1.18-1.05s-1.12.38-1.34,1.36Z"/><path d="M347.41,322.76l-.5,2.42A2.66,2.66,0,0,0,346,325c-1.18,0-2,.79-2.43,2.32L342,335h-2.59l2.57-12.24h2.21l-.31,1.92c.62-1.44,1.46-2.16,2.59-2.16A1.85,1.85,0,0,1,347.41,322.76Z"/><path d="M356.7,327.44,358,335h-2.59l-.86-5-1.47,1.8-.69,3.22h-2.6l3.58-16.8H356l-2,9.31,3.55-4.75h3Z"/><path d="M362.87,318.2h2.59L361.88,335h-2.59Z"/><path d="M372.83,325.42a7,7,0,0,1-.17,1.49l-1,4.87a15,15,0,0,0-.41,3.22h-2.4a4.59,4.59,0,0,1,.07-1.18,2.91,2.91,0,0,1-2.52,1.42,2.37,2.37,0,0,1-2.49-2.62c0-2.49,1.53-3.74,3.89-4.58,1.92-.67,2.2-.86,2.35-1.51v0l.07-.36a2.52,2.52,0,0,0,.07-.57c0-.63-.33-.92-1-.92s-1.08.46-1.24,1.3l-.12.58h-2.45l.17-.7c.5-2.14,1.75-3.36,3.76-3.36S372.83,323.41,372.83,325.42Zm-3.75,6.17.53-2.52a6.15,6.15,0,0,1-1.44.77,2.42,2.42,0,0,0-1.58,2.23.9.9,0,0,0,1,1C368.29,333.06,368.79,332.62,369.08,331.59Z"/><path d="M373,332.36a5.14,5.14,0,0,1,.12-1.06l0-.19h2.48l-.1.41a2.6,2.6,0,0,0-.07.58.87.87,0,0,0,1,1,1.35,1.35,0,0,0,1.32-1.44c0-.82-.65-1.35-1.39-1.9a3.78,3.78,0,0,1-2-3.29,3.73,3.73,0,0,1,3.88-3.91c1.78,0,3.1.94,3.1,2.76a5.67,5.67,0,0,1-.12,1.08h-2.4a5.51,5.51,0,0,0,.1-.82.75.75,0,0,0-.84-.81,1.23,1.23,0,0,0-1.2,1.34c0,.84.67,1.39,1.46,1.95a3.72,3.72,0,0,1,2,3.24,3.89,3.89,0,0,1-4.1,4C374.27,335.24,373,334.21,373,332.36Z"/><path d="M381.15,332.36a5.94,5.94,0,0,1,.12-1.06l.05-.19h2.47l-.09.41a2.6,2.6,0,0,0-.07.58.87.87,0,0,0,1,1,1.35,1.35,0,0,0,1.32-1.44c0-.82-.65-1.35-1.4-1.9a3.78,3.78,0,0,1-2-3.29,3.74,3.74,0,0,1,3.89-3.91c1.78,0,3.1.94,3.1,2.76a5.67,5.67,0,0,1-.12,1.08h-2.4a5.38,5.38,0,0,0,.09-.82.74.74,0,0,0-.84-.81,1.23,1.23,0,0,0-1.2,1.34c0,.84.68,1.39,1.47,1.95a3.72,3.72,0,0,1,2,3.24,3.9,3.9,0,0,1-4.11,4C382.47,335.24,381.15,334.21,381.15,332.36Z"/><path d="M391.79,322.76h2.59L391.79,335h-2.6Zm.93-4.3h2.55l-.58,2.79h-2.54Z"/><path d="M393.92,332.36a5.94,5.94,0,0,1,.12-1.06l0-.19h2.47l-.09.41a2.67,2.67,0,0,0-.08.58.88.88,0,0,0,1,1,1.34,1.34,0,0,0,1.32-1.44c0-.82-.64-1.35-1.39-1.9a3.78,3.78,0,0,1-2-3.29,3.74,3.74,0,0,1,3.89-3.91c1.78,0,3.1.94,3.1,2.76a5.67,5.67,0,0,1-.12,1.08h-2.4a7,7,0,0,0,.09-.82.74.74,0,0,0-.84-.81,1.23,1.23,0,0,0-1.2,1.34c0,.84.67,1.39,1.47,1.95a3.72,3.72,0,0,1,2,3.24,3.9,3.9,0,0,1-4.11,4C395.24,335.24,393.92,334.21,393.92,332.36Z"/><path d="M408.83,327.44l1.34,7.56h-2.59l-.87-5-1.46,1.8-.7,3.22H402l3.58-16.8h2.59l-2,9.31,3.55-4.75h3Z"/><path d="M429.66,325a6,6,0,0,1-.17,1.37L427.64,335h-2.59l1.82-8.52a2.7,2.7,0,0,0,.1-.74.83.83,0,0,0-.94-1c-.6,0-1.12.38-1.44,1.32a1.09,1.09,0,0,1,0,.24L422.7,335h-2.6l1.83-8.52a3.08,3.08,0,0,0,.09-.74c0-.63-.28-1-.93-1s-1.27.48-1.54,1.7l-1.8,8.52h-2.59l2.57-12.24h2.21l-.22,1.27a3,3,0,0,1,2.55-1.51,2.19,2.19,0,0,1,2.35,1.61,3,3,0,0,1,2.59-1.61A2.23,2.23,0,0,1,429.66,325Z"/><path d="M439.5,322.76,436.93,335h-2.21l.22-1.27a3,3,0,0,1-2.55,1.51,2.23,2.23,0,0,1-2.45-2.45,6,6,0,0,1,.17-1.37l1.85-8.66h2.59l-1.82,8.52a3.15,3.15,0,0,0-.1.74.83.83,0,0,0,.94,1c.67,0,1.27-.48,1.53-1.7l1.8-8.52Z"/><path d="M439,332.36a5.94,5.94,0,0,1,.12-1.06l.05-.19h2.47l-.09.41a2.67,2.67,0,0,0-.08.58.88.88,0,0,0,1,1,1.34,1.34,0,0,0,1.32-1.44c0-.82-.64-1.35-1.39-1.9a3.78,3.78,0,0,1-2-3.29,3.74,3.74,0,0,1,3.89-3.91c1.78,0,3.1.94,3.1,2.76a5.67,5.67,0,0,1-.12,1.08h-2.4a7,7,0,0,0,.09-.82.74.74,0,0,0-.84-.81,1.23,1.23,0,0,0-1.2,1.34c0,.84.67,1.39,1.47,1.95a3.72,3.72,0,0,1,2,3.24,3.9,3.9,0,0,1-4.11,4C440.31,335.24,439,334.21,439,332.36Z"/><path d="M449.62,322.76h2.6L449.62,335H447Zm.94-4.3h2.54l-.57,2.79H450Z"/><path d="M458.46,327.44,459.8,335h-2.59l-.87-5-1.46,1.8-.7,3.22h-2.59l3.58-16.8h2.59l-2,9.31,3.55-4.75h3Z"/></g><g class="cls-3"><path d="M163.12,361.07a4.85,4.85,0,0,1,.12-1.17l1.06-4.83c.48-2.3,1.87-3.55,3.93-3.55s3.63,1.1,3.63,3.17a5.41,5.41,0,0,1-.12,1.17l-1.06,4.83c-.48,2.3-1.87,3.55-3.94,3.55S163.12,363.14,163.12,361.07Zm5-.43,1.16-5.28a2.76,2.76,0,0,0,.07-.55c0-.72-.41-1-1.15-1s-1.16.55-1.33,1.34l-1.15,5.28a2.18,2.18,0,0,0-.07.55c0,.72.41,1,1.15,1S167.94,361.43,168.11,360.64Z"/><path d="M181.58,351.76l-2.72,12.84c-.45,2.11-1.48,3.36-3.93,3.36s-3.63-1-3.63-2.78c0-.17,0-.39,0-.58h2.45a1.78,1.78,0,0,0,0,.31c0,.6.38,1,1.12,1s1.18-.38,1.4-1.37l.4-2a2.77,2.77,0,0,1-2.06.91,2.28,2.28,0,0,1-2.5-2.5,7.79,7.79,0,0,1,.17-1.34l1-4.87c.48-2.26,1.64-3.22,3.15-3.22a2.34,2.34,0,0,1,2.47,1.92l.41-1.68Zm-4.28,8,.87-4.06c0-.21.05-.41.05-.57,0-1-.48-1.32-1.16-1.32s-1,.57-1.2,1.39l-1,4.56a2.74,2.74,0,0,0-.07.62c0,.55.21.94,1,.94S177,360.88,177.3,359.73Z"/><path d="M192.83,360.78a15,15,0,0,0-.41,3.22H190a3.47,3.47,0,0,1,.08-1.25,3,3,0,0,1-2.52,1.49,2.27,2.27,0,0,1-2.5-2.5,7,7,0,0,1,.17-1.34l1.2-5.66c.48-2.28,1.63-3.22,3.14-3.22a2.39,2.39,0,0,1,2.31,1.37l1.22-5.69h2.59Zm-2.52-.52.94-4.4a4.1,4.1,0,0,0,.09-.81c0-.91-.5-1.27-1.17-1.27s-1,.57-1.2,1.34l-1.13,5.3a2.89,2.89,0,0,0-.07.63c0,.55.19.93.93.93S190,361.6,190.31,360.26Z"/><path d="M202,351.76l-.5,2.42a2.61,2.61,0,0,0-.91-.16c-1.18,0-2,.79-2.43,2.32l-1.6,7.66H194l2.57-12.24h2.21l-.31,1.92c.62-1.44,1.46-2.16,2.59-2.16A1.83,1.83,0,0,1,202,351.76Z"/><path d="M209.44,354.42a7,7,0,0,1-.17,1.49l-1,4.87a15,15,0,0,0-.41,3.22h-2.4a4.79,4.79,0,0,1,.08-1.18,2.92,2.92,0,0,1-2.52,1.42,2.38,2.38,0,0,1-2.5-2.62c0-2.49,1.54-3.74,3.89-4.58,1.92-.67,2.21-.86,2.35-1.51v0l.07-.36a2.59,2.59,0,0,0,.08-.57c0-.63-.34-.92-1-.92s-1.08.46-1.25,1.3l-.12.58h-2.45l.17-.7c.5-2.14,1.75-3.36,3.77-3.36S209.44,352.41,209.44,354.42Zm-3.75,6.17.53-2.52a5.93,5.93,0,0,1-1.44.77,2.42,2.42,0,0,0-1.58,2.23.91.91,0,0,0,1,1C204.9,362.06,205.41,361.62,205.69,360.59Z"/><path d="M219.3,351.76l-2.71,12.84c-.45,2.11-1.49,3.36-3.93,3.36s-3.63-1-3.63-2.78c0-.17,0-.39.05-.58h2.45a1.2,1.2,0,0,0,0,.31c0,.6.39,1,1.13,1s1.18-.38,1.39-1.37l.41-2a2.77,2.77,0,0,1-2.06.91,2.28,2.28,0,0,1-2.5-2.5,6.92,6.92,0,0,1,.17-1.34l1-4.87c.48-2.26,1.63-3.22,3.15-3.22a2.35,2.35,0,0,1,2.47,1.92l.41-1.68Zm-4.27,8,.87-4.06c0-.21,0-.41,0-.57,0-1-.48-1.32-1.15-1.32s-1,.57-1.2,1.39l-1,4.56a2.78,2.78,0,0,0-.08.62c0,.55.22.94,1,.94S214.72,360.88,215,359.73Z"/><path d="M232,354a7,7,0,0,1-.17,1.34l-1.2,5.66c-.47,2.28-1.63,3.22-3.14,3.22a2.39,2.39,0,0,1-2.28-1.32l-1,4.8h-2.59l3.36-16h2.21L227,353a3,3,0,0,1,2.52-1.49A2.27,2.27,0,0,1,232,354Zm-2.68.69c0-.55-.2-.93-.94-.93s-1.2.31-1.51,1.36l-1,4.9a5.44,5.44,0,0,0-.07.67c0,.91.48,1.27,1.16,1.27s1-.57,1.19-1.34l1.13-5.3A2.94,2.94,0,0,0,229.34,354.71Z"/><path d="M240.73,354.42a7,7,0,0,1-.16,1.49l-1,4.87a15,15,0,0,0-.41,3.22h-2.4a4.59,4.59,0,0,1,.07-1.18,2.91,2.91,0,0,1-2.52,1.42,2.37,2.37,0,0,1-2.49-2.62c0-2.49,1.53-3.74,3.88-4.58,1.92-.67,2.21-.86,2.36-1.51v0l.07-.36a2.52,2.52,0,0,0,.07-.57c0-.63-.34-.92-1-.92s-1.08.46-1.24,1.3l-.13.58h-2.44l.16-.7c.51-2.14,1.76-3.36,3.77-3.36S240.73,352.41,240.73,354.42ZM237,360.59l.53-2.52a6.15,6.15,0,0,1-1.44.77,2.43,2.43,0,0,0-1.59,2.23.91.91,0,0,0,1,1C236.2,362.06,236.7,361.62,237,360.59Zm-.7-12a2.35,2.35,0,0,1,2.36-2.32,1.86,1.86,0,0,1,2,1.87,2.35,2.35,0,0,1-2.35,2.33A1.9,1.9,0,0,1,236.29,348.61Zm1.4-.11a.67.67,0,0,0,.69.72.92.92,0,0,0,.89-.94.68.68,0,0,0-.72-.72A.89.89,0,0,0,237.69,348.5Z"/><path d="M253.74,354.69a6,6,0,0,1-.14,1.2l-.53,2.54H248l-.41,1.9a2.94,2.94,0,0,0-.07.62c0,.7.4,1,1.24,1,.68,0,1.13-.43,1.35-1.39l.12-.55h2.47l-.12.58c-.48,2.32-1.87,3.62-4,3.62-2.4,0-3.67-1.2-3.67-3.17a6.54,6.54,0,0,1,.14-1.25l1-4.72c.48-2.28,1.87-3.58,4-3.58S253.74,352.58,253.74,354.69Zm-5.3,1.73h2.5l.21-1a2.43,2.43,0,0,0,.07-.55c0-.74-.43-1.05-1.17-1.05s-1.13.38-1.35,1.36Z"/><path d="M263,354a6,6,0,0,1-.17,1.37L261,364H258.4l1.82-8.52a3.15,3.15,0,0,0,.1-.74.83.83,0,0,0-.94-1c-.65,0-1.22.45-1.51,1.53L256.05,364h-2.6L256,351.76h2.21L258,353a3,3,0,0,1,2.55-1.51A2.23,2.23,0,0,1,263,354Z"/><path d="M275.89,354.69a5.34,5.34,0,0,1-.14,1.2l-.53,2.54h-5.06l-.41,1.9a2.94,2.94,0,0,0-.07.62c0,.7.41,1,1.25,1,.67,0,1.12-.43,1.34-1.39l.12-.55h2.47l-.12.58c-.48,2.32-1.87,3.62-4,3.62-2.4,0-3.67-1.2-3.67-3.17a6.54,6.54,0,0,1,.14-1.25l1-4.72c.48-2.28,1.87-3.58,4-3.58S275.89,352.58,275.89,354.69Zm-5.3,1.73h2.5l.21-1a2.43,2.43,0,0,0,.07-.55c0-.74-.43-1.05-1.17-1.05s-1.13.38-1.35,1.36Z"/><path d="M285.16,354a6,6,0,0,1-.17,1.37L283.14,364h-2.59l1.82-8.52a3.15,3.15,0,0,0,.1-.74.83.83,0,0,0-.94-1c-.64,0-1.22.45-1.51,1.53L278.2,364h-2.6l2.57-12.24h2.21l-.21,1.27a3,3,0,0,1,2.54-1.51A2.23,2.23,0,0,1,285.16,354Z"/><path d="M294.21,354.69a5.39,5.39,0,0,1-.15,1.2l-.53,2.54h-5.06l-.41,1.9a2.94,2.94,0,0,0-.07.62c0,.7.41,1,1.25,1,.67,0,1.12-.43,1.34-1.39l.12-.55h2.47l-.12.58c-.48,2.32-1.87,3.62-4,3.62-2.4,0-3.67-1.2-3.67-3.17a6.54,6.54,0,0,1,.14-1.25l1-4.72c.48-2.28,1.87-3.58,4-3.58S294.21,352.58,294.21,354.69Zm-5.31,1.73h2.5l.21-1a2.51,2.51,0,0,0,.08-.55c0-.74-.44-1.05-1.18-1.05s-1.13.38-1.34,1.36Z"/><path d="M294.13,361.36a5.94,5.94,0,0,1,.12-1.06l.05-.19h2.47l-.09.41a2.67,2.67,0,0,0-.08.58.88.88,0,0,0,1,1,1.35,1.35,0,0,0,1.33-1.44c0-.82-.65-1.35-1.4-1.9a3.78,3.78,0,0,1-2-3.29,3.74,3.74,0,0,1,3.89-3.91c1.78,0,3.1.94,3.1,2.76a5.67,5.67,0,0,1-.12,1.08h-2.4a5.38,5.38,0,0,0,.09-.82.74.74,0,0,0-.84-.81,1.23,1.23,0,0,0-1.2,1.34c0,.84.68,1.39,1.47,1.95a3.72,3.72,0,0,1,2,3.24,3.9,3.9,0,0,1-4.11,4C295.45,364.24,294.13,363.21,294.13,361.36Z"/><path d="M306,361a1.47,1.47,0,0,0-.05.34c0,.53.48.62.89.62a2.3,2.3,0,0,0,.74-.12l-.29,2.19a3.82,3.82,0,0,1-1.36.19c-1.61,0-2.64-.79-2.64-2.26a3.35,3.35,0,0,1,.09-.81l1.54-7.25h-1.39l.45-2.16h1.51l.94-3.31h2.26l-.7,3.31h1.83l-.46,2.16H307.5Z"/><path d="M317.6,354.42a7,7,0,0,1-.16,1.49l-1,4.87A15,15,0,0,0,316,364h-2.4a4.59,4.59,0,0,1,.07-1.18,2.91,2.91,0,0,1-2.52,1.42,2.37,2.37,0,0,1-2.49-2.62c0-2.49,1.53-3.74,3.88-4.58,1.92-.67,2.21-.86,2.36-1.51v0l.07-.36a2.52,2.52,0,0,0,.07-.57c0-.63-.33-.92-1-.92s-1.08.46-1.25,1.3l-.11.58h-2.45l.16-.7c.51-2.14,1.76-3.36,3.77-3.36S317.6,352.41,317.6,354.42Zm-3.74,6.17.53-2.52a6.15,6.15,0,0,1-1.44.77,2.43,2.43,0,0,0-1.59,2.23.91.91,0,0,0,1,1C313.07,362.06,313.57,361.62,313.86,360.59Zm-.69-12a2.35,2.35,0,0,1,2.35-2.32,1.86,1.86,0,0,1,2,1.87,2.35,2.35,0,0,1-2.35,2.33A1.89,1.89,0,0,1,313.17,348.61Zm1.39-.11a.68.68,0,0,0,.69.72.92.92,0,0,0,.89-.94.68.68,0,0,0-.72-.72A.89.89,0,0,0,314.56,348.5Z"/><path d="M326.77,354.69a5.34,5.34,0,0,1-.14,1.2l-.53,2.54H321l-.41,1.9a2.94,2.94,0,0,0-.07.62c0,.7.4,1,1.24,1,.68,0,1.13-.43,1.35-1.39l.12-.55h2.47l-.12.58c-.48,2.32-1.87,3.62-4,3.62-2.4,0-3.67-1.2-3.67-3.17a6.54,6.54,0,0,1,.14-1.25l1-4.72c.48-2.28,1.87-3.58,4-3.58S326.77,352.58,326.77,354.69Zm-5.3,1.73H324l.22-1a2.43,2.43,0,0,0,.07-.55c0-.74-.43-1.05-1.17-1.05s-1.13.38-1.35,1.36Z"/><path d="M336,354a6,6,0,0,1-.17,1.37L334,364h-2.59l1.82-8.52a3.15,3.15,0,0,0,.1-.74.83.83,0,0,0-.94-1c-.64,0-1.22.45-1.51,1.53L329.08,364h-2.6l2.57-12.24h2.21L331,353a3,3,0,0,1,2.55-1.51A2.23,2.23,0,0,1,336,354Z"/><path d="M344,360.78a14.31,14.31,0,0,0-.41,3.22h-2.4a3.37,3.37,0,0,1,.07-1.25,3,3,0,0,1-2.52,1.49,2.27,2.27,0,0,1-2.5-2.5,7.91,7.91,0,0,1,.17-1.34l1.2-5.66c.48-2.28,1.63-3.22,3.15-3.22a2.36,2.36,0,0,1,2.3,1.37l1.23-5.69h2.59Zm-2.52-.52.93-4.4a4.26,4.26,0,0,0,.1-.81,1.11,1.11,0,0,0-1.18-1.27c-.72,0-1,.57-1.2,1.34l-1.13,5.3a3.68,3.68,0,0,0-.07.63c0,.55.19.93.94.93S341.15,361.6,341.44,360.26Z"/><path d="M354.37,354.69a6,6,0,0,1-.14,1.2l-.53,2.54h-5.06l-.41,1.9a2.94,2.94,0,0,0-.07.62c0,.7.4,1,1.24,1,.68,0,1.13-.43,1.35-1.39l.12-.55h2.47l-.12.58c-.48,2.32-1.87,3.62-4,3.62-2.4,0-3.67-1.2-3.67-3.17a6.54,6.54,0,0,1,.14-1.25l1-4.72c.48-2.28,1.87-3.58,4-3.58S354.37,352.58,354.37,354.69Zm-5.3,1.73h2.49l.22-1a2.43,2.43,0,0,0,.07-.55c0-.74-.43-1.05-1.17-1.05s-1.13.38-1.35,1.36Z"/><path d="M358.4,361.07a5.41,5.41,0,0,1,.12-1.17l1.06-4.83c.48-2.3,1.87-3.55,3.94-3.55s3.62,1.1,3.62,3.17a4.85,4.85,0,0,1-.12,1.17L366,360.69c-.48,2.3-1.87,3.55-3.93,3.55S358.4,363.14,358.4,361.07Zm5-.43,1.15-5.28a2.18,2.18,0,0,0,.07-.55c0-.72-.41-1-1.15-1s-1.15.55-1.32,1.34L361,360.4a2.22,2.22,0,0,0-.08.55c0,.72.41,1,1.16,1S363.23,361.43,363.4,360.64Z"/><path d="M376.86,351.76l-2.71,12.84c-.46,2.11-1.49,3.36-3.94,3.36s-3.62-1-3.62-2.78a4,4,0,0,1,.05-.58h2.44a1.78,1.78,0,0,0,0,.31c0,.6.38,1,1.13,1s1.17-.38,1.39-1.37l.41-2a2.79,2.79,0,0,1-2.07.91,2.28,2.28,0,0,1-2.49-2.5,6.92,6.92,0,0,1,.17-1.34l1-4.87c.48-2.26,1.63-3.22,3.14-3.22a2.34,2.34,0,0,1,2.47,1.92l.41-1.68Zm-4.27,8,.86-4.06a4.26,4.26,0,0,0,.05-.57c0-1-.48-1.32-1.15-1.32s-1,.57-1.2,1.39l-1,4.56a3.46,3.46,0,0,0-.07.62c0,.55.22.94,1,.94S372.28,360.88,372.59,359.73Z"/></g><g class="cls-3"><path d="M172.7,380.76,170.13,393h-2.21l.22-1.27a3,3,0,0,1-2.55,1.51,2.23,2.23,0,0,1-2.45-2.45,6,6,0,0,1,.17-1.37l1.85-8.66h2.59l-1.82,8.52a3.15,3.15,0,0,0-.1.74.83.83,0,0,0,.94,1c.67,0,1.27-.48,1.53-1.7l1.8-8.52Z"/><path d="M181.53,383a6,6,0,0,1-.17,1.37L179.51,393h-2.59l1.82-8.52a2.7,2.7,0,0,0,.1-.74.83.83,0,0,0-.94-1c-.64,0-1.22.45-1.51,1.53L174.57,393H172l2.56-12.24h2.21l-.21,1.27a3,3,0,0,1,2.54-1.51A2.23,2.23,0,0,1,181.53,383Z"/><path d="M189.45,389.78A15,15,0,0,0,189,393h-2.4a3.62,3.62,0,0,1,.07-1.25,3,3,0,0,1-2.52,1.49,2.27,2.27,0,0,1-2.49-2.5,7.82,7.82,0,0,1,.16-1.34l1.2-5.66c.48-2.28,1.64-3.22,3.15-3.22a2.36,2.36,0,0,1,2.3,1.37l1.23-5.69h2.59Zm-2.52-.52.93-4.4a3.57,3.57,0,0,0,.1-.81c0-.91-.5-1.27-1.18-1.27s-1,.57-1.2,1.34l-1.12,5.3a2.94,2.94,0,0,0-.08.63c0,.55.2.93.94.93S186.64,390.6,186.93,389.26Z"/><path d="M199.86,383.69a5.34,5.34,0,0,1-.14,1.2l-.53,2.54h-5.06l-.41,1.9a2.94,2.94,0,0,0-.07.62c0,.7.41,1,1.25,1,.67,0,1.12-.43,1.34-1.39l.12-.55h2.47l-.12.58c-.48,2.32-1.87,3.62-4,3.62-2.4,0-3.67-1.2-3.67-3.17a6.54,6.54,0,0,1,.14-1.25l1-4.72c.48-2.28,1.87-3.58,4-3.58S199.86,381.58,199.86,383.69Zm-5.3,1.73h2.5l.21-1a2.43,2.43,0,0,0,.07-.55c0-.74-.43-1.05-1.17-1.05s-1.13.38-1.35,1.36Z"/><path d="M207.62,380.76l-.51,2.42a2.61,2.61,0,0,0-.91-.16c-1.18,0-2,.79-2.42,2.32L202.17,393h-2.59l2.56-12.24h2.21l-.31,1.92c.62-1.44,1.46-2.16,2.59-2.16A1.86,1.86,0,0,1,207.62,380.76Z"/><path d="M215.7,383a5.89,5.89,0,0,1-.16,1.37L213.69,393H211.1l1.82-8.52a3.15,3.15,0,0,0,.1-.74.83.83,0,0,0-.94-1c-.65,0-1.25.45-1.51,1.6L208.74,393H206.2l3.55-16.8h2.55l-1.11,5.23a2.79,2.79,0,0,1,2.07-.91A2.22,2.22,0,0,1,215.7,383Z"/><path d="M216,390.07a4.85,4.85,0,0,1,.12-1.17l1-4.83c.48-2.3,1.88-3.55,3.94-3.55s3.62,1.1,3.62,3.17a4.85,4.85,0,0,1-.12,1.17l-1.05,4.83c-.48,2.3-1.87,3.55-3.94,3.55S216,392.14,216,390.07Zm5-.43,1.15-5.28a2.18,2.18,0,0,0,.07-.55c0-.72-.41-1-1.15-1s-1.15.55-1.32,1.34l-1.15,5.28a2.18,2.18,0,0,0-.07.55c0,.72.41,1,1.15,1S220.79,390.43,221,389.64Z"/><path d="M228.09,376.2h2.59L227.1,393h-2.59Z"/><path d="M237.16,389.78a15,15,0,0,0-.41,3.22h-2.4a3.62,3.62,0,0,1,.07-1.25,3,3,0,0,1-2.52,1.49,2.27,2.27,0,0,1-2.49-2.5,7.82,7.82,0,0,1,.16-1.34l1.2-5.66c.48-2.28,1.64-3.22,3.15-3.22a2.36,2.36,0,0,1,2.3,1.37l1.23-5.69H240Zm-2.52-.52.93-4.4a3.57,3.57,0,0,0,.1-.81c0-.91-.5-1.27-1.18-1.27s-1,.57-1.2,1.34l-1.12,5.3a2.89,2.89,0,0,0-.07.63c0,.55.19.93.93.93S234.35,390.6,234.64,389.26Z"/><path d="M247.57,383.69a5.34,5.34,0,0,1-.14,1.2l-.53,2.54h-5.06l-.41,1.9a2.94,2.94,0,0,0-.07.62c0,.7.41,1,1.25,1,.67,0,1.12-.43,1.34-1.39l.12-.55h2.47l-.12.58c-.48,2.32-1.87,3.62-4,3.62-2.4,0-3.67-1.2-3.67-3.17a6.54,6.54,0,0,1,.14-1.25l1-4.72c.48-2.28,1.87-3.58,4-3.58S247.57,381.58,247.57,383.69Zm-5.3,1.73h2.5l.21-1a2.43,2.43,0,0,0,.07-.55c0-.74-.43-1.05-1.17-1.05s-1.13.38-1.35,1.36Z"/><path d="M256.84,383a6,6,0,0,1-.17,1.37L254.82,393h-2.59l1.82-8.52a2.7,2.7,0,0,0,.1-.74.83.83,0,0,0-.94-1c-.64,0-1.22.45-1.51,1.53L249.88,393h-2.59l2.56-12.24h2.21l-.21,1.27a3,3,0,0,1,2.54-1.51A2.23,2.23,0,0,1,256.84,383Z"/><path d="M264.76,389.78a15,15,0,0,0-.41,3.22H262a3.62,3.62,0,0,1,.07-1.25,3,3,0,0,1-2.52,1.49,2.27,2.27,0,0,1-2.49-2.5,7.82,7.82,0,0,1,.16-1.34l1.2-5.66c.48-2.28,1.64-3.22,3.15-3.22a2.36,2.36,0,0,1,2.3,1.37l1.23-5.69h2.59Zm-2.52-.52.93-4.4a3.57,3.57,0,0,0,.1-.81c0-.91-.5-1.27-1.18-1.27s-1,.57-1.2,1.34l-1.12,5.3a2.94,2.94,0,0,0-.08.63c0,.55.2.93.94.93S262,390.6,262.24,389.26Z"/><path d="M275.17,383.69a5.34,5.34,0,0,1-.14,1.2l-.53,2.54h-5.06l-.41,1.9a2.94,2.94,0,0,0-.07.62c0,.7.41,1,1.25,1,.67,0,1.12-.43,1.34-1.39l.12-.55h2.47l-.12.58c-.48,2.32-1.87,3.62-4,3.62-2.4,0-3.67-1.2-3.67-3.17a6.54,6.54,0,0,1,.14-1.25l1-4.72c.48-2.28,1.87-3.58,4-3.58S275.17,381.58,275.17,383.69Zm-5.3,1.73h2.5l.21-1a2.43,2.43,0,0,0,.07-.55c0-.74-.43-1.05-1.17-1.05s-1.13.38-1.35,1.36Z"/><path d="M293.17,383a5.89,5.89,0,0,1-.16,1.37L291.16,393h-2.59l1.82-8.52a3.15,3.15,0,0,0,.1-.74.83.83,0,0,0-.94-1c-.6,0-1.13.38-1.44,1.32a.74.74,0,0,1-.05.24L286.21,393h-2.59l1.82-8.52a2.7,2.7,0,0,0,.1-.74.83.83,0,0,0-.94-1c-.67,0-1.27.48-1.53,1.7l-1.8,8.52h-2.59l2.57-12.24h2.2l-.21,1.27a3,3,0,0,1,2.54-1.51,2.18,2.18,0,0,1,2.35,1.61,3,3,0,0,1,2.6-1.61A2.22,2.22,0,0,1,293.17,383Z"/><path d="M302,383.42a7,7,0,0,1-.17,1.49l-1,4.87a13.71,13.71,0,0,0-.41,3.22H298a4.59,4.59,0,0,1,.07-1.18,2.92,2.92,0,0,1-2.52,1.42,2.38,2.38,0,0,1-2.5-2.62c0-2.49,1.54-3.74,3.89-4.58,1.92-.67,2.21-.86,2.35-1.51v0l.07-.36a2.59,2.59,0,0,0,.08-.57c0-.63-.34-.92-1-.92s-1.08.46-1.25,1.3l-.12.58h-2.45l.17-.7c.5-2.14,1.75-3.36,3.77-3.36S302,381.41,302,383.42Zm-3.74,6.17.53-2.52a6.38,6.38,0,0,1-1.44.77,2.43,2.43,0,0,0-1.59,2.23.91.91,0,0,0,1,1C297.44,391.06,298,390.62,298.24,389.59Zm-.7-12a2.35,2.35,0,0,1,2.35-2.32,1.86,1.86,0,0,1,2,1.87,2.35,2.35,0,0,1-2.36,2.33A1.89,1.89,0,0,1,297.54,377.61Zm1.39-.11a.68.68,0,0,0,.7.72.92.92,0,0,0,.89-.94.68.68,0,0,0-.72-.72A.89.89,0,0,0,298.93,377.5Z"/><path d="M310,389.78a15,15,0,0,0-.41,3.22h-2.4a3.62,3.62,0,0,1,.07-1.25,3,3,0,0,1-2.51,1.49,2.27,2.27,0,0,1-2.5-2.5,7,7,0,0,1,.17-1.34l1.2-5.66c.48-2.28,1.63-3.22,3.14-3.22a2.39,2.39,0,0,1,2.31,1.37l1.22-5.69h2.59Zm-2.52-.52.94-4.4a4.1,4.1,0,0,0,.09-.81c0-.91-.5-1.27-1.17-1.27s-1,.57-1.2,1.34l-1.13,5.3a2.89,2.89,0,0,0-.07.63c0,.55.19.93.93.93S307.21,390.6,307.5,389.26Z"/><path d="M320.44,383.69a5.39,5.39,0,0,1-.15,1.2l-.52,2.54H314.7l-.41,1.9a3.79,3.79,0,0,0-.07.62c0,.7.41,1,1.25,1,.67,0,1.13-.43,1.34-1.39l.12-.55h2.48l-.13.58c-.47,2.32-1.87,3.62-3.95,3.62-2.4,0-3.68-1.2-3.68-3.17a5.89,5.89,0,0,1,.15-1.25l1-4.72c.48-2.28,1.88-3.58,4-3.58S320.44,381.58,320.44,383.69Zm-5.31,1.73h2.5l.22-1a3.17,3.17,0,0,0,.07-.55c0-.74-.43-1.05-1.18-1.05s-1.13.38-1.34,1.36Z"/><path d="M320.8,390.36h2.64l-.56,2.64h-2.64Z"/></g></svg>